<svg width="406" height="306" viewBox="0 0 406 306" fill="none" xmlns="http://www.w3.org/2000/svg">
<g clip-path="url(#clip0_613_6)">
<path opacity="0.18" d="M75.3673 297.6C61.3881 295.302 48.2293 289.466 37.143 280.646C24.0676 270.37 9.86194 256.524 10.2986 239.339C10.761 221.1 17.5685 203.555 25.0951 187.14C35.0366 164.971 48.9083 141.594 45.2348 116.908C41.6128 92.6066 46.4936 62.6796 59.4919 41.7693C80.0426 8.8368 116.006 0.847709 151.97 0.0770577C175.732 -0.411022 200.187 1.00184 221.842 10.7891C244.602 21.0645 262.815 40.0482 286.063 48.885C301.476 54.6906 318.328 55.8465 333.407 62.3714C352.391 70.6174 367.033 86.9552 376.538 105.348C386.043 123.741 390.821 144.163 394.391 164.431C400.402 198.725 386.12 241.496 365.543 269.574C351.749 288.326 328.783 309.93 305.099 305.306C185.031 282.392 208.125 319.024 75.3673 297.6Z" fill="#ECA72F"/>
<path opacity="0.31" d="M361.896 119.117C361.896 122.356 360.611 125.462 358.323 127.754C356.036 130.047 352.932 131.338 349.694 131.345H318.277C315.034 131.345 311.924 130.056 309.63 127.763C307.337 125.47 306.049 122.36 306.049 119.117C306.049 115.874 307.337 112.764 309.63 110.471C311.924 108.178 315.034 106.889 318.277 106.889H322.798C322.772 106.556 322.772 106.221 322.798 105.887C322.772 104.413 323.038 102.949 323.579 101.577C324.119 100.205 324.925 98.9535 325.95 97.8932C326.974 96.8329 328.197 95.9848 329.55 95.3972C330.902 94.8097 332.357 94.4943 333.831 94.469C335.305 94.4437 336.77 94.709 338.142 95.2498C339.513 95.7906 340.765 96.5962 341.825 97.6207C342.886 98.6453 343.734 99.8686 344.321 101.221C344.909 102.573 345.224 104.028 345.249 105.502V105.887C345.249 106.221 345.249 106.555 345.249 106.889H349.745C352.988 106.889 356.098 108.178 358.391 110.471C360.684 112.764 361.973 115.874 361.973 119.117H361.896Z" fill="#ECA72F"/>
<path d="M358.094 117.961C358.094 121.2 356.809 124.306 354.521 126.598C352.234 128.891 349.13 130.182 345.892 130.189H314.5C312.895 130.189 311.305 129.872 309.821 129.258C308.338 128.643 306.99 127.743 305.854 126.607C304.719 125.472 303.818 124.124 303.203 122.64C302.589 121.157 302.273 119.567 302.273 117.961C302.273 116.355 302.589 114.765 303.203 113.282C303.818 111.798 304.719 110.45 305.854 109.315C306.99 108.179 308.338 107.279 309.821 106.664C311.305 106.05 312.895 105.733 314.5 105.733H318.996C318.996 105.399 318.996 105.066 318.996 104.757C318.923 103.236 319.16 101.716 319.692 100.289C320.224 98.8624 321.04 97.5583 322.091 96.4561C323.141 95.3539 324.405 94.4764 325.805 93.8769C327.205 93.2774 328.712 92.9683 330.235 92.9683C331.757 92.9683 333.264 93.2774 334.664 93.8769C336.064 94.4764 337.328 95.3539 338.378 96.4561C339.429 97.5583 340.245 98.8624 340.777 100.289C341.309 101.716 341.546 103.236 341.473 104.757V104.757C341.473 105.091 341.473 105.425 341.473 105.759H345.969C349.191 105.779 352.275 107.074 354.547 109.36C356.819 111.646 358.094 114.738 358.094 117.961V117.961Z" fill="white"/>
<path d="M67.3781 146.758C67.3655 146.282 67.4501 145.809 67.6268 145.367C67.8035 144.926 68.0685 144.525 68.4057 144.189C69.9467 142.61 71.0605 140.665 71.6424 138.537C71.9776 137.181 71.8805 135.753 71.3647 134.454C70.8488 133.156 69.94 132.05 68.7653 131.293C67.3716 130.217 65.7715 129.439 64.0643 129.007C63.2301 128.753 62.5137 128.21 62.043 127.476C61.5724 126.742 61.3783 125.864 61.4955 125C61.6239 123.869 61.7524 122.739 61.8551 121.609C61.9404 120.593 62.4221 119.652 63.1961 118.988C63.9701 118.325 64.9741 117.993 65.9909 118.064C67.6216 118.015 69.2271 117.648 70.7176 116.985C72.3969 116.348 73.7636 115.084 74.5302 113.46C75.2968 111.836 75.4035 109.978 74.8278 108.277C74.3829 106.829 73.8422 105.413 73.2094 104.038C72.8461 103.251 72.7626 102.363 72.9728 101.522C73.1831 100.681 73.6744 99.9375 74.3654 99.414C75.2131 98.7205 76.1122 98.1296 76.9342 97.4103C77.6768 96.8391 78.5941 96.5424 79.5306 96.5705C80.467 96.5986 81.3649 96.9498 82.0719 97.5645C83.3002 98.7761 84.7472 99.7437 86.3362 100.416C87.8126 101.095 89.4796 101.238 91.0503 100.821C92.621 100.404 93.9971 99.452 94.9418 98.1296C96.0201 96.6247 96.8365 94.9485 97.3565 93.1718C97.6182 92.3156 98.1817 91.5834 98.9422 91.111C99.7027 90.6386 100.609 90.4581 101.492 90.6029C102.623 90.7827 103.727 90.9369 104.857 91.0653C105.741 91.1662 106.556 91.5884 107.148 92.2516C107.74 92.9148 108.068 93.7726 108.069 94.6617C108.149 96.8056 108.711 98.9038 109.713 100.801C110.46 102.036 111.566 103.015 112.883 103.607C114.199 104.198 115.665 104.376 117.085 104.115C118.697 103.792 120.255 103.238 121.709 102.471C122.567 101.988 123.578 101.852 124.534 102.091C125.489 102.33 126.317 102.925 126.847 103.755C127.489 104.732 128.337 105.579 128.979 106.555C129.46 107.237 129.686 108.067 129.615 108.899C129.545 109.731 129.183 110.511 128.594 111.102C127.336 112.408 126.342 113.942 125.665 115.623C124.947 117.27 124.894 119.131 125.517 120.816C126.139 122.501 127.389 123.881 129.005 124.666C130.237 125.361 131.536 125.929 132.883 126.361C133.655 126.608 134.324 127.101 134.788 127.764C135.252 128.428 135.485 129.226 135.452 130.035C135.452 131.396 135.195 132.758 134.99 134.093C134.882 134.979 134.449 135.792 133.775 136.376C133.101 136.96 132.234 137.272 131.342 137.253C129.351 137.292 127.394 137.775 125.614 138.666C124.279 139.322 123.198 140.4 122.538 141.733C121.879 143.066 121.678 144.579 121.966 146.038C122.216 147.747 122.764 149.399 123.584 150.919C123.844 151.334 124.02 151.796 124.102 152.279C124.183 152.762 124.168 153.256 124.059 153.733C123.949 154.21 123.746 154.661 123.462 155.06C123.178 155.459 122.818 155.797 122.403 156.057L120.091 157.855C119.375 158.491 118.442 158.827 117.486 158.794C116.529 158.76 115.622 158.36 114.953 157.675C113.582 156.39 111.965 155.394 110.201 154.747C108.746 154.183 107.143 154.13 105.654 154.597C104.165 155.064 102.879 156.022 102.006 157.316C100.929 158.822 100.113 160.497 99.5914 162.274C99.3533 163.097 98.8291 163.808 98.1132 164.279C97.3974 164.75 96.5369 164.95 95.6867 164.842L91.8848 164.277C91.0991 164.117 90.3875 163.703 89.8587 163.1C89.3299 162.497 89.013 161.738 88.9564 160.938C88.9087 158.893 88.4363 156.881 87.5692 155.029C86.9101 153.551 85.7492 152.352 84.2918 151.647C82.8343 150.942 81.1744 150.775 79.6058 151.176C78.0446 151.611 76.5235 152.178 75.059 152.872C74.3068 153.249 73.4512 153.368 72.6246 153.21C71.7981 153.052 71.0466 152.626 70.4864 151.998C69.5651 150.999 68.7072 149.944 67.9176 148.838C67.5754 148.165 67.3001 147.459 67.0956 146.732L67.3781 146.758ZM98.5638 115.572C96.9605 115.562 95.3709 115.868 93.8864 116.474C92.4019 117.08 91.0516 117.973 89.9131 119.102C88.7746 120.231 87.8703 121.574 87.252 123.053C86.6338 124.532 86.3138 126.119 86.3105 127.723C86.3478 130.888 87.6008 133.917 89.81 136.184C92.0193 138.45 95.0155 139.78 98.1785 139.899C99.8188 139.996 101.462 139.76 103.008 139.205C104.555 138.65 105.973 137.787 107.178 136.67C108.383 135.552 109.348 134.202 110.017 132.701C110.686 131.2 111.045 129.58 111.071 127.937C111.097 126.294 110.79 124.662 110.169 123.141C109.548 121.62 108.625 120.24 107.457 119.085C106.288 117.929 104.898 117.023 103.369 116.419C101.841 115.815 100.206 115.527 98.5638 115.572Z" fill="#7CC7F1"/>
<path d="M159.831 111.462C159.831 111.924 159.831 112.387 159.831 112.849C159.842 113.454 159.639 114.043 159.258 114.513C158.878 114.983 158.344 115.303 157.75 115.418L155.181 116.06C154.532 116.244 153.839 116.19 153.226 115.907C152.614 115.624 152.123 115.132 151.842 114.519C151.335 113.477 150.715 112.495 149.992 111.59C149.564 110.999 149.018 110.504 148.389 110.135C147.76 109.766 147.061 109.532 146.336 109.447C145.612 109.363 144.878 109.43 144.18 109.644C143.483 109.858 142.838 110.215 142.285 110.691C141.458 111.348 140.677 112.06 139.948 112.823C139.519 113.328 138.927 113.667 138.274 113.779C137.622 113.892 136.95 113.772 136.377 113.44L134.296 112.207C133.946 112.035 133.633 111.795 133.376 111.5C133.12 111.206 132.924 110.863 132.802 110.492C132.68 110.121 132.634 109.729 132.665 109.34C132.697 108.951 132.806 108.572 132.986 108.225C133.39 107.065 133.632 105.855 133.706 104.629C133.814 103.294 133.396 101.969 132.542 100.938C131.688 99.9061 130.465 99.2487 129.133 99.1058C127.849 98.9003 126.564 99.1058 125.203 98.8489C124.551 98.8505 123.924 98.6047 123.447 98.1611C122.97 97.7176 122.679 97.1095 122.634 96.4599C122.523 95.7467 122.36 95.0427 122.146 94.3534C121.947 93.6805 121.999 92.9585 122.292 92.3209C122.585 91.6834 123.099 91.1735 123.738 90.8855C124.968 90.2472 126.115 89.4623 127.155 88.5478C128.053 87.7303 128.619 86.6118 128.747 85.4044C128.875 84.197 128.555 82.9847 127.849 81.9973C127.235 81.0573 126.511 80.1948 125.691 79.4285C125.347 79.1964 125.054 78.8955 124.832 78.5449C124.61 78.1943 124.463 77.8015 124.401 77.3912C124.338 76.981 124.361 76.5621 124.468 76.1612C124.575 75.7602 124.764 75.3858 125.023 75.0614C125.382 74.4706 125.716 73.8541 126.102 73.2633C126.445 72.6517 127.003 72.1895 127.667 71.9663C128.332 71.7432 129.056 71.7751 129.698 72.0559C131.135 72.6528 132.694 72.8993 134.245 72.7752C135.304 72.7202 136.316 72.3181 137.123 71.6309C137.931 70.9438 138.491 70.0099 138.715 68.9733C139.032 67.6011 139.17 66.1937 139.126 64.7861C139.085 64.1419 139.253 63.5018 139.605 62.9605C139.957 62.4192 140.473 62.0055 141.078 61.7806C142.029 61.498 142.979 61.2925 143.929 61.087C144.26 60.9767 144.609 60.9347 144.956 60.9636C145.303 60.9924 145.641 61.0916 145.948 61.255C146.256 61.4184 146.527 61.6426 146.745 61.914C146.963 62.1854 147.124 62.4983 147.218 62.8338C147.866 64.3304 148.861 65.6512 150.12 66.687C151.104 67.4196 152.31 67.7914 153.536 67.74C154.761 67.6885 155.932 67.2169 156.851 66.4045C157.591 65.8144 158.279 65.1611 158.906 64.4521C159.35 63.9453 159.955 63.6073 160.62 63.4949C161.285 63.3826 161.967 63.503 162.554 63.8356L164.943 65.2485C165.516 65.5877 165.947 66.1238 166.155 66.757C166.363 67.3902 166.334 68.0774 166.073 68.6907C165.536 70.0292 165.274 71.4619 165.302 72.9036C165.292 74.1619 165.745 75.3801 166.573 76.3271C167.402 77.2741 168.549 77.884 169.798 78.0413C170.963 78.2086 172.14 78.2859 173.317 78.2725C174.035 78.2002 174.752 78.4128 175.314 78.8645C175.876 79.3163 176.239 79.9709 176.323 80.6872C176.528 81.5092 176.759 82.3056 176.939 83.256C177.106 83.8792 177.032 84.5422 176.732 85.1133C176.432 85.6844 175.928 86.1218 175.321 86.3386C173.959 86.9401 172.735 87.8144 171.724 88.9075C170.985 89.6495 170.505 90.6109 170.357 91.648C170.209 92.6851 170.4 93.7422 170.902 94.6617C171.628 95.8383 172.49 96.9248 173.471 97.8984C174.068 98.3486 174.465 99.0133 174.58 99.7516C174.695 100.49 174.519 101.244 174.088 101.854L172.932 103.781C172.605 104.449 172.028 104.961 171.326 105.206C170.623 105.452 169.853 105.41 169.181 105.091C167.484 104.378 165.603 104.225 163.812 104.654C162.904 104.922 162.088 105.436 161.453 106.139C160.818 106.841 160.39 107.706 160.216 108.636C160.027 109.561 159.89 110.496 159.805 111.436L159.831 111.462ZM149.555 79.4542C148.354 79.4405 147.161 79.6659 146.048 80.1171C144.934 80.5683 143.921 81.2364 143.068 82.0825C142.214 82.9287 141.538 83.936 141.077 85.0459C140.616 86.1558 140.381 87.3462 140.384 88.5478C140.319 89.7913 140.507 91.0351 140.937 92.2035C141.368 93.3719 142.032 94.4404 142.888 95.3439C143.745 96.2473 144.777 96.9668 145.921 97.4585C147.065 97.9502 148.297 98.2038 149.542 98.2038C150.788 98.2038 152.02 97.9502 153.164 97.4585C154.308 96.9668 155.34 96.2473 156.196 95.3439C157.053 94.4404 157.717 93.3719 158.148 92.2035C158.578 91.0351 158.766 89.7913 158.7 88.5478C158.707 87.343 158.473 86.1489 158.013 85.0357C157.552 83.9225 156.873 82.9126 156.016 82.0654C155.159 81.2183 154.142 80.5509 153.024 80.1024C151.905 79.654 150.709 79.4336 149.504 79.4542H149.555Z" fill="#7CC7F1"/>
<path d="M136.351 240.803L166.124 243.115C167.532 243.105 168.919 243.449 170.157 244.117C171.046 244.823 171.69 245.791 171.998 246.884C172.307 247.976 172.265 249.138 171.879 250.205C171.059 252.32 169.651 254.157 167.82 255.497C157.005 264.205 141.823 264.642 127.849 264.565L62.0864 264.205C59.5445 264.37 56.9965 263.994 54.6111 263.1C53.4336 262.619 52.4337 261.786 51.7484 260.714C51.0632 259.643 50.7261 258.386 50.7835 257.115C51.0608 256.007 51.5769 254.973 52.2958 254.086C53.0146 253.198 53.9188 252.479 54.945 251.977C60.8195 248.76 67.2539 246.694 73.903 245.889C83.9215 244.091 93.9571 242.378 104.01 240.751" fill="url(#paint0_linear_613_6)"/>
<path d="M313.267 237.695L343.04 239.981C344.451 239.967 345.841 240.321 347.073 241.008C347.956 241.713 348.597 242.677 348.905 243.764C349.214 244.851 349.175 246.007 348.794 247.071C347.972 249.192 346.553 251.03 344.71 252.363C333.921 261.199 318.739 261.533 304.79 261.431L239.002 261.045C236.461 261.201 233.915 260.825 231.527 259.941C230.331 259.471 229.311 258.639 228.611 257.561C227.911 256.483 227.565 255.214 227.622 253.93C227.891 252.818 228.404 251.781 229.124 250.892C229.844 250.003 230.752 249.286 231.784 248.792C237.698 245.591 244.166 243.542 250.845 242.755C260.863 240.957 270.899 239.244 280.951 237.618" fill="url(#paint1_linear_613_6)"/>
<path d="M294.207 243.654C294.265 245.197 293.976 246.734 293.359 248.15C292.614 249.46 291.484 250.509 290.122 251.155C287.19 252.674 283.787 253.005 280.617 252.08C280.423 252.071 280.233 252.022 280.059 251.935C279.885 251.848 279.731 251.726 279.608 251.576C279.484 251.425 279.394 251.251 279.342 251.063C279.29 250.876 279.278 250.68 279.307 250.487C279.579 248.73 280.495 247.137 281.876 246.018C283.242 244.916 284.407 243.587 285.318 242.087C286.757 239.159 285.678 231.324 291.227 232.583C295.774 233.559 294.335 240.315 294.207 243.654Z" fill="#CE9E95"/>
<path d="M294.977 248.792C294.977 248.792 295.748 250.719 294.797 251.849C293.847 252.979 283.88 259.17 277.175 254.187C270.471 249.203 286.269 248.561 286.269 248.561L294.977 248.792Z" fill="#ECA72F"/>
<path d="M294.592 244.374C294.286 244.226 293.937 244.191 293.608 244.276C293.279 244.36 292.991 244.559 292.794 244.836C292.14 245.584 291.306 246.153 290.371 246.49C289.437 246.827 288.431 246.921 287.451 246.763C285.267 246.249 284.394 243.731 283.315 243.706C282.236 243.68 276.43 248.638 276.096 250.744C275.762 252.851 278.665 254.418 282.005 254.623C285.344 254.829 292.691 252.568 294.104 250.847C294.701 249.887 295.057 248.797 295.142 247.67C295.227 246.543 295.038 245.412 294.592 244.374V244.374Z" fill="white"/>
<path d="M313.216 246.608C313.275 248.152 312.985 249.688 312.368 251.104C311.623 252.414 310.493 253.463 309.132 254.109C306.203 255.636 302.799 255.977 299.627 255.06C299.191 254.975 298.8 254.738 298.522 254.392C298.364 254.102 298.292 253.772 298.317 253.442C298.589 251.685 299.505 250.091 300.886 248.972C302.252 247.87 303.416 246.541 304.328 245.041C305.766 242.113 304.687 234.278 310.236 235.537C314.783 236.59 313.344 243.346 313.216 246.608Z" fill="#CE9E95"/>
<path d="M313.987 251.926C313.987 251.926 314.757 253.853 313.807 254.983C312.856 256.113 302.889 262.304 296.185 257.32C289.48 252.337 305.253 251.695 305.253 251.695L313.987 251.926Z" fill="#ECA72F"/>
<path d="M313.601 247.431C313.297 247.272 312.946 247.231 312.613 247.317C312.281 247.402 311.993 247.607 311.803 247.893C311.143 248.632 310.308 249.194 309.375 249.526C308.441 249.859 307.439 249.951 306.46 249.794C304.276 249.28 303.403 246.763 302.324 246.737C301.245 246.711 295.44 251.669 295.106 253.776C294.772 255.882 297.675 257.449 301.014 257.654C304.354 257.86 311.7 255.599 313.113 253.878C313.71 252.923 314.066 251.838 314.151 250.715C314.236 249.591 314.048 248.465 313.601 247.431V247.431Z" fill="white"/>
<path d="M317.172 164.791C317.172 164.791 318.225 221.716 313.987 240.726L303.3 242.036L295.876 164.02L317.172 164.791Z" fill="#473F47"/>
<path d="M284.111 158.574C284.111 158.574 278.973 189.4 285.19 238.619L295.876 239.929L303.3 161.965L284.111 158.574Z" fill="#473F47"/>
<path d="M271.704 134.068C271.704 136.123 272.5 137.921 274.272 138.512C274.419 138.578 274.575 138.621 274.735 138.64C278.023 139.308 282.441 136.816 285.344 134.633C286.589 133.725 287.781 132.748 288.915 131.704V109.715L272.937 126.079C272.099 128.658 271.683 131.356 271.704 134.068V134.068Z" fill="#ECA72F"/>
<path d="M285.087 134.556C285.087 135.583 285.087 136.636 285.087 137.664C285.087 143.341 286.397 149.198 284.702 154.772C284.158 155.961 283.997 157.29 284.24 158.574C284.735 159.599 285.583 160.411 286.629 160.861C291.804 163.287 297.372 164.767 303.069 165.228C307.308 165.818 313.344 167.077 317.275 164.791C318.767 163.681 319.763 162.03 320.049 160.193C321.539 154.306 322.4 148.279 322.618 142.211C322.618 141.44 322.618 140.644 322.772 139.848C323.106 134.427 323.209 128.956 323.106 123.535C323.106 119.579 322.721 115.315 320.152 112.335C315.999 108.402 310.749 105.823 305.098 104.937C303.46 104.599 301.781 104.504 300.115 104.654C297.767 105.031 295.499 105.804 293.41 106.941C290.933 107.787 288.827 109.467 287.451 111.693C286.066 114.521 285.089 117.531 284.548 120.633C284.098 123.558 284.046 126.53 284.394 129.469C284.548 130.908 284.907 132.347 285.062 133.759C285.087 134.042 285.087 134.299 285.087 134.556Z" fill="#ECA72F"/>
<path opacity="0.1" d="M308.284 166.718C309.928 167.206 313.73 165.716 314.989 165.485C315.733 165.485 316.427 164.971 317.172 164.791C320.948 163.841 321.385 153.283 321.745 150.431C323.044 142.875 323.902 135.25 324.313 127.594C324.485 124.681 324.146 121.76 323.312 118.963C322.895 117.561 322.175 116.269 321.202 115.177C320.23 114.085 319.03 113.22 317.686 112.644C312.882 110.922 311.444 126.13 310.776 129.264L307.179 146.449C306.666 148.567 306.331 150.724 306.177 152.897C306.263 155.541 306.811 158.149 307.796 160.604C308.232 162.119 307.025 164.971 307.616 166.075C307.663 166.231 307.749 166.371 307.866 166.483C307.983 166.596 308.127 166.676 308.284 166.718Z" fill="#020202"/>
<path d="M296.698 100.133C297.298 100.794 298.122 101.206 299.01 101.289C299.754 101.353 300.502 101.353 301.245 101.289H301.682C301.774 101.263 301.872 101.263 301.964 101.289C302.052 101.38 302.106 101.498 302.119 101.623C302.247 103.11 302.247 104.606 302.119 106.093V106.093V106.889C302.041 107.167 302.041 107.46 302.119 107.737C302.273 108.071 302.658 108.199 303.018 108.328C303.67 108.553 304.357 108.666 305.047 108.662C306.514 108.526 307.926 108.032 309.157 107.223C309.045 104.647 309.183 102.066 309.568 99.5168C310.287 96.3056 310.614 93.0193 310.544 89.7295C310.46 88.4373 309.985 87.2011 309.183 86.1845C308.544 85.5655 307.781 85.0895 306.943 84.7883C306.106 84.4871 305.215 84.3676 304.328 84.4377C301.98 84.3901 299.669 85.0236 297.675 86.2616C296.93 86.7496 296.852 87.3919 296.673 88.2139C296.441 89.4983 296.236 90.7827 296.082 92.1185C295.928 93.4543 295.825 95.0727 295.799 96.5883C295.654 97.8402 295.974 99.1019 296.698 100.133Z" fill="#CE9E95"/>
<path d="M298.24 81.9459C297.786 82.0239 297.37 82.2503 297.059 82.5897C296.747 82.929 296.557 83.3622 296.519 83.8212C296.502 84.2844 296.643 84.7396 296.918 85.1127C297.194 85.4857 297.587 85.7548 298.034 85.8762C297.966 86.4018 298.1 86.9336 298.411 87.3633C298.721 87.7929 299.184 88.0879 299.704 88.1882C300.756 88.3417 301.83 88.2086 302.812 87.8029C303.347 88.4671 304.103 88.9177 304.942 89.0732C305.78 89.2287 306.647 89.0788 307.385 88.6506V89.2414C307.874 90.2675 308.178 91.3719 308.284 92.5038L308.001 94.6873C308.066 94.1233 308.35 93.6075 308.793 93.2516C309.235 92.8958 309.8 92.7286 310.365 92.7864C310.522 92.7698 310.681 92.7864 310.831 92.835C310.982 92.8837 311.12 92.9634 311.238 93.069C311.335 93.2247 311.397 93.4002 311.418 93.5828C311.434 93.9226 311.368 94.2614 311.225 94.5701C311.082 94.8787 310.866 95.1482 310.596 95.3552C310.21 95.6121 309.722 95.7919 309.543 96.2287C309.415 96.6473 309.415 97.0944 309.543 97.5131C309.647 98.0052 309.593 98.5176 309.388 98.9773L310.108 98.7975C310.32 98.6842 310.518 98.5463 310.699 98.3865C310.894 98.1695 311.04 97.9119 311.124 97.6321C311.209 97.3522 311.23 97.0572 311.187 96.7681C311.57 96.7694 311.947 96.6787 312.288 96.5035C312.628 96.3284 312.921 96.074 313.143 95.7617C313.365 95.4495 313.508 95.0885 313.561 94.7093C313.614 94.3301 313.575 93.9437 313.447 93.5828C313.637 93.5576 313.82 93.4949 313.985 93.3982C314.15 93.3015 314.294 93.1729 314.409 93.0198C314.524 92.8667 314.607 92.6922 314.654 92.5066C314.7 92.3209 314.709 92.1279 314.68 91.9387C314.529 91.1738 314.174 90.4639 313.653 89.8836C314.255 89.8769 314.83 89.633 315.253 89.205C315.676 88.7769 315.913 88.1993 315.913 87.5974C315.862 87.2482 315.862 86.8933 315.913 86.5441C316.063 86.1475 316.271 85.7752 316.53 85.4395C316.759 84.999 316.841 84.4962 316.762 84.0058C316.683 83.5154 316.449 83.0633 316.093 82.7166C315.579 82.2542 314.86 82.023 314.475 81.4578C314.268 80.9311 314.138 80.3774 314.089 79.8138C313.627 77.733 311.315 76.7569 309.286 76.089C308.74 75.8671 308.152 75.7705 307.565 75.8064C307.273 75.8292 306.997 75.9472 306.779 76.1421C306.561 76.337 306.413 76.5981 306.357 76.8853C305.805 76.4201 305.124 76.1335 304.405 76.0633C303.711 76.0633 302.941 76.7055 303.12 77.3734C302.838 76.2431 300.937 79.1716 300.834 79.2486C299.575 80.0193 297.649 79.2486 298.24 81.9459Z" fill="#473F47"/>
<path d="M301.245 101.341H301.682C301.774 101.314 301.872 101.314 301.964 101.341C302.052 101.432 302.106 101.549 302.119 101.675C302.247 103.162 302.247 104.657 302.119 106.144V106.144C303.446 105.736 304.59 104.881 305.358 103.724C306.126 102.568 306.47 101.181 306.332 99.7994C304.677 100.479 302.955 100.978 301.194 101.289L301.245 101.341Z" fill="#AF807A"/>
<path d="M258.243 128.391C260.344 131.388 262.952 133.996 265.949 136.097C268.101 137.547 270.584 138.431 273.168 138.666C273.507 138.701 273.85 138.657 274.17 138.537C274.721 138.375 275.206 138.042 275.557 137.587C276.635 136.303 277.282 134.712 277.406 133.04C277.586 128.647 272.834 126.104 272.834 126.104C272.834 126.104 262.019 122.662 260.735 123.227C260.041 123.51 259.373 125.051 258.911 126.361C258.448 127.671 258.243 128.391 258.243 128.391Z" fill="#ECA72F"/>
<path opacity="0.1" d="M258.243 128.391C260.344 131.388 262.952 133.996 265.949 136.097C268.101 137.547 270.584 138.431 273.168 138.666C273.507 138.701 273.85 138.657 274.17 138.537C274.316 138.604 274.472 138.647 274.632 138.666C277.92 139.334 282.339 136.842 285.241 134.658L284.214 128.082C282.246 130.15 279.956 131.886 277.432 133.22C275.655 134.171 273.624 134.54 271.627 134.273C271.085 134.194 270.557 134.039 270.06 133.811C266.007 131.834 262.24 129.32 258.859 126.335C258.5 127.44 258.243 128.391 258.243 128.391Z" fill="#020202"/>
<path d="M329.836 135.558C331.505 139.334 332.228 143.461 331.943 147.58C331.224 152.512 327.935 156.648 324.776 160.424C322.207 160.809 319.047 160.758 318.148 158.395C317.941 157.633 317.889 156.839 317.994 156.057L318.354 150.919C318.648 148.656 318.526 146.357 317.994 144.138C317.012 141.723 315.726 139.444 314.166 137.356C311.915 133.776 310.566 129.704 310.236 125.488C309.954 121.532 312.959 108.739 318.79 112.644C321.205 114.236 323.363 120.812 324.647 123.458C326.6 127.414 328.329 131.447 329.836 135.558Z" fill="#ECA72F"/>
<path d="M316.658 164.02C316.529 164.21 316.457 164.433 316.453 164.663C316.453 164.724 316.469 164.784 316.497 164.838C316.526 164.893 316.567 164.939 316.617 164.975C316.667 165.01 316.725 165.032 316.786 165.041C316.847 165.049 316.909 165.043 316.966 165.022C317.557 166.846 316.324 168.773 316.324 170.699C316.299 170.87 316.299 171.043 316.324 171.213C316.418 171.422 316.57 171.601 316.761 171.727C317.084 171.931 317.454 172.05 317.836 172.073C318.218 172.095 318.599 172.02 318.945 171.855C319.636 171.525 320.255 171.063 320.768 170.494C321.873 169.479 322.711 168.209 323.209 166.795C323.393 166.14 323.513 165.469 323.568 164.791L324.185 159.653C320.511 158.497 318.405 160.989 316.658 164.02Z" fill="#CE9E95"/>
<path d="M258.859 118.989C258.753 118.645 258.558 118.334 258.294 118.089C258.234 118.027 258.163 117.978 258.083 117.944C258.004 117.91 257.918 117.893 257.832 117.893C257.746 117.893 257.66 117.91 257.581 117.944C257.501 117.978 257.429 118.027 257.369 118.089C257.267 118.271 257.206 118.473 257.19 118.68C257.09 118.903 256.928 119.092 256.722 119.225C256.517 119.357 256.278 119.427 256.034 119.425C255.545 119.394 255.065 119.272 254.621 119.066C253.332 118.598 252.02 118.195 250.69 117.858C250.382 117.756 250.049 117.756 249.74 117.858C249.579 117.943 249.436 118.059 249.321 118.2C249.206 118.342 249.122 118.505 249.072 118.68C248.796 119.49 248.727 120.356 248.87 121.199C249.014 122.043 249.366 122.837 249.894 123.51C250.976 124.849 252.449 125.819 254.107 126.284C255.784 126.734 257.509 126.984 259.245 127.029C259.673 127.089 260.109 127.027 260.503 126.849C262.559 125.668 259.45 120.35 258.859 118.989Z" fill="#CE9E95"/>
<path d="M135.273 157.367C135.273 157.367 135.273 181.154 133.577 185.47C129.184 197.544 123.302 202.476 123.302 202.476C120.99 211.227 118.695 219.987 116.417 228.755C118.652 231.324 122.377 233.893 124.895 231.658C125.552 230.999 126.068 230.212 126.41 229.346L138.509 202.99C141.128 197.865 143.079 192.426 144.315 186.806V186.318V186.189C144.315 185.855 144.495 184.751 144.649 183.158C145.034 178.509 144.264 156.519 142.08 150.739C142.08 150.739 133.937 153.539 131.599 150.354L135.273 157.367Z" fill="#ECA72F"/>
<path d="M135.273 157.367C135.273 157.367 135.273 181.154 133.577 185.47C129.184 197.544 123.302 202.476 123.302 202.476C120.99 211.227 118.695 219.987 116.417 228.755C118.652 231.324 122.377 233.893 124.895 231.658C125.552 230.998 126.068 230.212 126.41 229.346L138.509 202.99C141.128 197.865 143.079 192.426 144.315 186.806V186.318V186.189C144.315 185.855 144.495 184.751 144.649 183.158C145.034 178.509 144.341 160.707 142.286 154.901C140.983 155.131 139.644 155.038 138.385 154.631C137.127 154.223 135.988 153.513 135.067 152.563L135.273 157.367Z" fill="url(#paint2_linear_613_6)"/>
<path d="M115.004 153.95C112.847 157.123 112.025 161.017 112.718 164.791C113.54 170.468 117.599 175.066 118.421 180.666C118.578 182.108 118.252 183.561 117.494 184.798C116.737 186.035 115.59 186.985 114.234 187.499L98.4098 195.668C95.6685 196.797 93.2878 198.654 91.5253 201.037C90.7113 202.246 90.3958 203.723 90.6447 205.159C90.8936 206.595 91.6877 207.879 92.8611 208.744L123.328 202.553C129.207 198.981 133.561 193.365 135.555 186.78C136.711 182.336 135.144 152.563 135.144 152.563C130.212 147.837 128.517 149.609 125.46 146.013C121.786 148.787 117.753 150.226 115.004 153.95Z" fill="#ECA72F"/>
<path d="M90.4463 213.625C90.4463 215.346 90.7803 217.401 89.4702 218.557C89.4173 218.623 89.3511 218.678 89.276 218.718C89.2008 218.758 89.1183 218.782 89.0335 218.788C88.7828 218.783 88.5437 218.682 88.3656 218.505C85.36 215.937 84.5637 211.647 84.3068 207.691C84.1243 206.696 84.297 205.668 84.7949 204.788C85.4882 204.067 86.384 203.575 87.3637 203.375C88.924 202.897 90.4373 202.278 91.8849 201.525C91.4482 201.757 91.6023 204.325 91.6023 204.762C91.7969 205.726 91.8916 206.707 91.8849 207.691C91.5996 208.565 91.2651 209.423 90.883 210.259C90.5604 211.351 90.413 212.487 90.4463 213.625V213.625Z" fill="#EC9C7D"/>
<path d="M123.764 238.054C124.57 239.283 124.999 240.721 124.997 242.19C124.977 242.457 124.869 242.71 124.689 242.909C124.149 243.423 123.276 243.063 122.685 242.652C120.417 240.844 118.471 238.663 116.931 236.205C116.683 235.919 116.515 235.574 116.443 235.203C116.428 234.7 116.572 234.206 116.854 233.79L118.601 230.579C118.648 230.478 118.718 230.39 118.806 230.322C118.923 230.283 119.049 230.283 119.166 230.322C120.09 230.506 120.994 230.781 121.863 231.144C123.045 231.632 123.071 231.683 122.942 232.891C122.766 234.654 123.05 236.433 123.764 238.054Z" fill="#EC9C7D"/>
<path d="M115.004 238.054C114.954 238.222 114.954 238.4 115.004 238.568C115.004 238.799 115.287 238.953 115.467 239.082C116.485 239.899 117.415 240.82 118.241 241.83C120.093 243.683 122.077 245.4 124.175 246.968C124.571 247.378 125.046 247.703 125.572 247.924C126.097 248.144 126.662 248.256 127.232 248.253C127.359 248.278 127.49 248.278 127.617 248.253C127.756 248.106 127.838 247.915 127.849 247.713C128.046 245.955 127.752 244.177 127.001 242.575C126.765 241.944 126.417 241.361 125.973 240.854C125.741 240.604 125.458 240.406 125.144 240.273C124.83 240.141 124.491 240.076 124.149 240.084C123.405 240.084 122.737 240.7 121.966 240.7C121.201 240.574 120.517 240.149 120.065 239.518C119.469 238.844 118.928 238.122 118.447 237.361C118.087 236.796 117.753 235.768 117.162 235.408C115.801 234.432 115.261 237.181 115.004 238.054Z" fill="#ECA72F"/>
<path d="M82.6628 205.481C82.5563 205.541 82.464 205.623 82.392 205.721C82.32 205.82 82.2701 205.932 82.2458 206.052C82.2214 206.171 82.2231 206.295 82.2507 206.413C82.2783 206.532 82.3313 206.644 82.4059 206.74C82.8395 208.155 83.1321 209.609 83.2793 211.081C83.8289 214.038 84.6018 216.95 85.5912 219.79C85.7112 220.432 85.9568 221.043 86.3139 221.59C86.671 222.137 87.1325 222.607 87.672 222.975C87.824 223.011 87.9824 223.011 88.1344 222.975C88.3548 222.915 88.5518 222.79 88.6995 222.616C90.038 221.069 90.9265 219.186 91.2684 217.17C91.4227 216.407 91.4227 215.621 91.2684 214.858C91.2079 214.475 91.0667 214.11 90.854 213.787C90.6414 213.464 90.3623 213.189 90.0353 212.982C89.2904 212.571 88.3142 212.674 87.5949 212.16C87.2665 211.871 87.0028 211.515 86.8213 211.117C86.6398 210.718 86.5445 210.286 86.5417 209.848C86.4144 208.835 86.3629 207.813 86.3876 206.791C86.3876 205.995 86.7215 204.813 86.3876 204.223C85.694 202.553 83.4334 204.813 82.6628 205.481Z" fill="#ECA72F"/>
<path d="M144.315 96.4085C143.881 99.9779 142.857 103.45 141.284 106.684C141.185 107.017 140.977 107.306 140.693 107.506C140.421 107.635 140.119 107.688 139.819 107.66L127.849 107.506C126.898 107.506 125.717 107.352 125.28 106.453C124.895 107.249 123.79 107.3 122.917 107.198C119.09 106.756 115.379 105.606 111.973 103.807C113.273 99.1526 114.94 94.6087 116.957 90.2176C117.646 88.6656 118.593 87.2413 119.757 86.0047C121.331 84.5124 123.218 83.3892 125.28 82.7166C130.418 80.867 137.739 79.8395 141.669 84.5918C142.885 86.2808 143.746 88.1985 144.201 90.2294C144.656 92.2603 144.695 94.3622 144.315 96.4085Z" fill="#110F0E"/>
<path d="M143.955 113.414C148.759 118.372 153.691 123.253 158.392 128.313C159.865 127.264 161.41 126.32 163.016 125.488C165.174 124.614 179.225 117.499 184.646 116.394C187.549 115.802 190.555 115.961 193.38 116.856C193.846 116.963 194.252 117.249 194.51 117.653C194.895 118.423 194.048 119.271 193.226 119.451C192.357 119.515 191.497 119.662 190.657 119.888C189.971 120.294 189.383 120.847 188.936 121.506C188.009 122.547 186.873 123.383 185.604 123.958C184.334 124.533 182.957 124.835 181.563 124.846C180.407 124.846 179.225 124.28 178.095 124.357C176.534 124.795 175.1 125.597 173.908 126.695C170.132 129.264 166.766 132.526 162.939 135.095C162.197 135.691 161.311 136.081 160.37 136.225C159.481 136.221 158.603 136.019 157.801 135.635C152.135 133.762 146.896 130.785 142.388 126.875C142.018 126.54 141.713 126.14 141.489 125.693C141.344 125.228 141.275 124.742 141.284 124.255C141.284 122.251 141.284 120.222 141.284 118.218C141.285 117.328 141.487 116.45 141.874 115.649C142.089 115.241 142.431 114.915 142.848 114.72C143.266 114.525 143.736 114.472 144.186 114.57" fill="#FDB9A9"/>
<path d="M153.1 129.11C153.561 129.486 154.071 129.797 154.616 130.035C155.825 130.427 157.105 130.549 158.366 130.394C160.282 130.351 162.198 130.463 164.095 130.728C164.577 130.763 165.044 130.913 165.456 131.165C165.656 131.294 165.808 131.483 165.891 131.705C165.975 131.927 165.984 132.17 165.919 132.398C165.79 132.643 165.605 132.854 165.379 133.014C163.957 134.397 162.178 135.358 160.242 135.789C157.831 135.847 155.471 135.097 153.537 133.657L149.324 131.088C148.69 130.784 148.135 130.335 147.706 129.778C147.115 128.853 146.987 126.31 148.425 126.053C149.864 125.796 152.15 128.468 153.1 129.11Z" fill="#DE9F93"/>
<path d="M141.489 110.075C139.974 108.919 138.201 109.715 136.352 109.792C134.502 109.869 132.216 109.946 130.161 109.792C126.23 109.664 119.885 109.253 116.263 113.543C111.948 118.68 115.338 127.157 117.573 132.552C118.362 133.96 118.917 135.487 119.217 137.073C119.448 138.83 119.448 140.609 119.217 142.365C118.714 145.794 117.363 149.043 115.287 151.818C114.808 152.275 114.428 152.825 114.172 153.435C113.915 154.045 113.788 154.702 113.797 155.363C113.971 155.934 114.269 156.46 114.668 156.904C115.067 157.348 115.559 157.699 116.109 157.932C120.216 160.331 124.844 161.698 129.595 161.914C131.812 161.879 134.018 161.594 136.172 161.066C138.124 160.758 140.256 161.426 141.695 159.602C142.142 158.96 142.457 158.235 142.619 157.47C144.264 151.279 144.238 144.626 146.704 138.769C148.014 135.583 150.223 131.73 150.018 128.185C149.872 126.817 149.508 125.481 148.939 124.229C147.706 121.121 146.37 118.064 144.88 115.084C144.14 113.181 142.981 111.468 141.489 110.075Z" fill="white"/>
<path d="M136.634 111.359C136.634 111.359 135.35 114.596 126.795 109.818C126.795 109.818 129.107 109.612 128.465 104.86C128.283 103.224 127.71 101.656 126.795 100.287C126.898 100.392 127.027 100.468 127.169 100.506C127.311 100.544 127.461 100.544 127.603 100.504C127.744 100.465 127.873 100.388 127.975 100.282C128.077 100.177 128.149 100.045 128.183 99.9021C128.339 100.372 128.537 100.828 128.773 101.264C130.109 103.832 133.038 106.889 136.3 106.016C135.975 106.636 135.78 107.316 135.727 108.013C135.674 108.711 135.764 109.413 135.992 110.075C136.155 110.526 136.371 110.957 136.634 111.359V111.359Z" fill="#FDB9A9"/>
<path d="M135.992 110.075H135.555C132.344 110.409 128.568 101.032 128.568 101.032H128.773C130.109 103.601 133.038 106.658 136.3 105.785C135.942 106.435 135.729 107.155 135.675 107.896C135.622 108.637 135.73 109.38 135.992 110.075V110.075Z" fill="#DE9F93"/>
<path d="M133.552 106.376C138.227 106.787 141.104 102.394 141.618 96.6654C141.618 96.0317 141.618 95.3895 141.618 94.7388C141.629 92.87 141.413 91.0069 140.975 89.1901C138.92 80.379 126.41 83.8983 126.41 83.8983C116.649 88.3167 125.28 105.708 133.552 106.376Z" fill="#FDB9A9"/>
<path d="M136.891 83.7185C136.742 84.4079 136.544 85.086 136.3 85.7478C135.906 87.1348 135.435 88.4984 134.887 89.8323C133.94 92.5067 132.133 94.792 129.75 96.3315C129.195 96.7248 128.529 96.9317 127.849 96.9223C127.206 96.7938 127.258 96.3058 126.77 95.8434C126.605 95.6864 126.397 95.5828 126.172 95.5461C125.948 95.5095 125.717 95.5414 125.511 95.6379C125.342 95.772 125.207 95.9445 125.118 96.141C125.028 96.3376 124.987 96.5525 124.997 96.7681C125.007 97.2847 125.145 97.7907 125.401 98.2396C125.657 98.6885 126.022 99.0658 126.462 99.337C126.877 99.5188 127.273 99.7426 127.643 100.005C128.08 100.39 128.131 100.955 128.362 101.443L129.133 103.267C129.418 103.841 129.559 104.476 129.544 105.117C129.477 105.486 129.329 105.837 129.112 106.143C128.894 106.449 128.612 106.704 128.285 106.889C126.583 107.76 124.631 108.015 122.762 107.609C121.433 107.534 120.144 107.128 119.012 106.427C118.385 105.919 117.793 105.37 117.239 104.783C116.337 104.12 115.352 103.576 114.311 103.165C115.386 102.423 116.318 101.491 117.06 100.416C117.675 99.4008 118.063 98.2639 118.196 97.0841C118.329 95.9042 118.204 94.7096 117.83 93.5828C117.419 92.1442 117.83 84.4891 123.225 81.946C126.692 80.427 130.557 80.0667 134.245 80.9184C134.928 81.0239 135.569 81.3174 136.095 81.7661C136.391 81.9893 136.622 82.2886 136.762 82.6324C136.903 82.9761 136.947 83.3515 136.891 83.7185V83.7185Z" fill="#2C2826"/>
<path d="M128.568 137.253L124.997 145.139C120.304 139.132 116.696 132.351 114.337 125.102C111.768 115.932 116.315 113.62 116.315 113.62C119.808 112.335 122.172 117.293 125.588 127.337C127.463 132.86 128.568 137.253 128.568 137.253Z" fill="#FDB9A9"/>
<path d="M124.997 145.139C124.997 145.139 124.843 138.717 127.977 137.433C131.111 136.148 152.998 132.706 152.998 132.706L155.053 135.095C155.053 135.095 133.551 147.503 124.997 145.139Z" fill="#FDB9A9"/>
<path d="M160.499 162.068L160.216 161.785C161.295 162.993 162.014 163.84 162.22 164.097C161.68 163.404 161.089 162.71 160.499 162.068Z" fill="#DC9BD5"/>
<path d="M155.361 132.372C157.237 132.044 159.134 131.855 161.038 131.807C162.064 131.764 163.091 131.85 164.095 132.064C165.351 132.398 166.566 132.872 167.717 133.477C168.025 133.631 168.411 133.836 168.462 134.196C168.467 134.362 168.424 134.526 168.337 134.668C168.251 134.809 168.124 134.922 167.974 134.992C167.669 135.122 167.35 135.217 167.023 135.275C166.33 135.506 165.713 135.969 165.045 136.251C163.966 136.688 162.733 136.636 161.629 137.022C160.935 137.279 160.293 137.715 159.599 137.998C158.145 138.563 156.532 138.563 155.078 137.998C154.579 137.802 154.09 137.579 153.614 137.33C153.158 137.061 152.676 136.837 152.175 136.662C151.842 136.662 151.61 136.662 151.353 136.354C151.128 135.963 151.009 135.52 151.009 135.07C151.009 134.619 151.128 134.176 151.353 133.785C151.995 133.207 152.828 132.886 153.691 132.886L155.361 132.372Z" fill="#FDB9A9"/>
<path d="M112.949 116.754C112.398 118.423 112.019 120.145 111.819 121.891L111.485 124.255C111.338 124.74 111.338 125.259 111.485 125.745C111.896 126.567 113.463 126.233 114.234 126.361L118.447 127.029L126.847 128.262C127.027 126.829 127.027 125.379 126.847 123.946C126.59 122.611 125.999 121.378 125.665 120.016C125.331 118.655 125.28 117.781 125.023 116.779C124.428 114.514 123.078 112.521 121.195 111.128C118.241 108.97 113.926 114.185 113.026 116.548L112.949 116.754Z" fill="white"/>
<path d="M257.729 77.2963H167.974V157.958H257.729V77.2963Z" fill="white"/>
<path d="M191.193 130.638L180.198 130.688L180.272 147.026L191.267 146.976L191.193 130.638Z" fill="#2FA8EC"/>
<path d="M204.679 113.623L193.684 113.673L193.835 146.939L204.83 146.889L204.679 113.623Z" fill="#ECA72F"/>
<path d="M218.301 126.585L207.307 126.635L207.398 146.903L218.393 146.853L218.301 126.585Z" fill="#2FA8EC"/>
<path d="M231.732 102.968L220.737 103.018L220.936 146.842L231.93 146.792L231.732 102.968Z" fill="#ECA72F"/>
<path d="M204.679 113.623L193.684 113.673L193.835 146.939L204.83 146.889L204.679 113.623Z" fill="url(#paint3_linear_613_6)"/>
<path d="M231.732 102.968L220.737 103.018L220.936 146.842L231.93 146.792L231.732 102.968Z" fill="url(#paint4_linear_613_6)"/>
<path d="M245.239 90.679L234.245 90.7289L234.499 146.78L245.493 146.73L245.239 90.679Z" fill="#2FA8EC"/>
<path d="M221.097 226.623L198.98 225.904L201.728 241.676L217.398 242.164L221.097 226.623Z" fill="#ECA72F"/>
<path d="M221.097 226.623L198.98 225.904L201.728 241.676L217.398 242.164L221.097 226.623Z" fill="url(#paint5_linear_613_6)"/>
<path d="M197.207 187.833C196.645 188.937 196.371 190.166 196.411 191.404C195.908 196.986 196.395 202.612 197.849 208.025C200.418 215.859 206.018 222.179 211.593 228.241C211.156 227.573 212.415 224.028 212.569 223.104C212.903 221.434 213.262 219.79 213.596 218.146C213.954 215.498 213.717 212.804 212.903 210.259C211.515 204.463 208.778 199.076 204.914 194.538C202.685 191.94 200.089 189.681 197.207 187.833Z" fill="#8BB660"/>
<path d="M221.92 206.74C223.968 202.674 225.471 198.355 226.389 193.896C226.847 191.655 226.856 189.345 226.415 187.101C225.974 184.856 225.092 182.722 223.82 180.82L213.108 197.056C210.899 200.079 209.166 203.423 207.971 206.971C207.123 210.589 207.044 214.345 207.739 217.996C208.434 221.646 209.886 225.11 212.004 228.164C214.393 226.109 215.523 221.408 216.833 218.505L221.92 206.74Z" fill="#8BB660"/>
<path d="M222.113 221.221L198.415 220.455C196.429 220.391 194.768 221.943 194.704 223.921C194.64 225.899 196.198 227.555 198.183 227.619L221.881 228.384C223.866 228.448 225.528 226.897 225.591 224.919C225.655 222.941 224.098 221.285 222.113 221.221Z" fill="#ECA72F"/>
<path d="M199.262 110.691C200.27 110.691 201.086 109.875 201.086 108.867C201.086 107.86 200.27 107.043 199.262 107.043C198.255 107.043 197.438 107.86 197.438 108.867C197.438 109.875 198.255 110.691 199.262 110.691Z" fill="#ECA72F"/>
<path d="M183.926 128.082C184.934 128.082 185.75 127.266 185.75 126.258C185.75 125.251 184.934 124.435 183.926 124.435C182.919 124.435 182.103 125.251 182.103 126.258C182.103 127.266 182.919 128.082 183.926 128.082Z" fill="#ECA72F"/>
<path d="M212.466 124.64C213.474 124.64 214.29 123.823 214.29 122.816C214.29 121.809 213.474 120.992 212.466 120.992C211.459 120.992 210.642 121.809 210.642 122.816C210.642 123.823 211.459 124.64 212.466 124.64Z" fill="#ECA72F"/>
<path d="M225.567 101.007C226.575 101.007 227.391 100.19 227.391 99.1828C227.391 98.1755 226.575 97.3589 225.567 97.3589C224.56 97.3589 223.743 98.1755 223.743 99.1828C223.743 100.19 224.56 101.007 225.567 101.007Z" fill="#ECA72F"/>
<path d="M239.876 89.5754C240.883 89.5754 241.7 88.7588 241.7 87.7515C241.7 86.7442 240.883 85.9276 239.876 85.9276C238.868 85.9276 238.052 86.7442 238.052 87.7515C238.052 88.7588 238.868 89.5754 239.876 89.5754Z" fill="#ECA72F"/>
<path d="M184.337 126.618L183.49 125.873L199.262 108.02L212.338 122.457L225.208 98.7461L239.516 87.2891L240.21 88.1882L226.004 99.5425L212.569 124.435L199.262 109.715L184.337 126.618Z" fill="#ECA72F"/>
<path opacity="0.31" d="M237.178 51.7107C237.178 54.1998 236.191 56.5873 234.434 58.3498C232.676 60.1123 230.291 61.1058 227.802 61.1126H203.681C201.187 61.1126 198.796 60.1221 197.033 58.3589C195.269 56.5957 194.279 54.2042 194.279 51.7107C194.279 49.2171 195.269 46.8257 197.033 45.0625C198.796 43.2993 201.187 42.3087 203.681 42.3087H207.149C207.135 42.0606 207.135 41.8119 207.149 41.5638C207.108 39.2746 207.978 37.063 209.568 35.4154C211.158 33.7678 213.337 32.8192 215.626 32.7784C217.915 32.7375 220.127 33.6076 221.774 35.1974C223.422 36.7872 224.37 38.9664 224.411 41.2555V41.5638C224.425 41.8119 224.425 42.0606 224.411 42.3087H227.879C229.113 42.3087 230.334 42.5521 231.473 43.0249C232.613 43.4977 233.647 44.1907 234.518 45.0641C235.389 45.9375 236.079 46.9741 236.549 48.1147C237.019 49.2552 237.259 50.4772 237.255 51.7107H237.178Z" fill="#ECA72F"/>
<path d="M234.276 50.8117C234.276 53.3052 233.285 55.6966 231.522 57.4598C229.759 59.223 227.367 60.2136 224.874 60.2136H200.778C199.504 60.2803 198.229 60.0869 197.032 59.6451C195.835 59.2034 194.74 58.5226 193.815 57.6442C192.889 56.7657 192.152 55.7081 191.648 54.5357C191.145 53.3632 190.885 52.1006 190.885 50.8245C190.885 49.5484 191.145 48.2857 191.648 47.1133C192.152 45.9409 192.889 44.8832 193.815 44.0048C194.74 43.1264 195.835 42.4456 197.032 42.0039C198.229 41.5621 199.504 41.3687 200.778 41.4354H204.22C204.22 41.1785 204.22 40.9216 204.22 40.6647C204.22 38.3756 205.13 36.1802 206.748 34.5615C208.367 32.9428 210.562 32.0334 212.852 32.0334C215.141 32.0334 217.336 32.9428 218.955 34.5615C220.573 36.1802 221.483 38.3756 221.483 40.6647V40.6647C221.496 40.9129 221.496 41.1616 221.483 41.4097H224.925C227.408 41.43 229.782 42.4287 231.533 44.189C233.283 45.9492 234.269 48.329 234.276 50.8117V50.8117Z" fill="white"/>
<path d="M310.544 92.0929C310.655 92.0344 310.779 92.0038 310.904 92.0038C311.029 92.0038 311.153 92.0344 311.264 92.0929C311.365 92.1909 311.436 92.3156 311.469 92.4525C311.729 93.0546 311.748 93.7332 311.524 94.3493C311.3 94.9654 310.848 95.4724 310.262 95.7663C310.077 95.901 309.868 95.9972 309.645 96.0489C309.536 96.0784 309.42 96.0773 309.312 96.0456C309.203 96.0138 309.105 95.9528 309.029 95.869C308.885 95.7069 308.811 95.4945 308.823 95.2782C308.681 94.6291 308.777 93.9506 309.093 93.3661C309.408 92.7815 309.924 92.3297 310.544 92.0929V92.0929Z" fill="#CE9E95"/>
<path d="M288.992 46.9327C288.996 49.0122 288.437 51.054 287.374 52.841V52.9951L282.236 62.3971H271.447L267.08 52.2502C266.287 50.6918 265.858 48.9743 265.823 47.2264C265.789 45.4784 266.151 43.7454 266.881 42.1571C267.612 40.5688 268.693 39.1664 270.042 38.0551C271.392 36.9438 272.975 36.1523 274.674 35.74C276.373 35.3277 278.144 35.3053 279.853 35.6744C281.561 36.0435 283.165 36.7946 284.542 37.8713C285.919 38.9481 287.035 40.3226 287.806 41.8918C288.576 43.4611 288.982 45.1844 288.992 46.9327V46.9327Z" fill="#ECA72F"/>
<path d="M288.992 46.9327C288.996 49.0122 288.437 51.054 287.373 52.841V52.9951L282.236 62.3971H271.447L267.08 52.2502C265.801 49.7586 265.466 46.8888 266.136 44.1697C266.807 41.4506 268.437 39.0654 270.727 37.4537C272.68 36.0732 275.015 35.3368 277.406 35.3472C278.928 35.3472 280.434 35.6469 281.84 36.2291C283.246 36.8113 284.523 37.6647 285.599 38.7405C286.674 39.8163 287.528 41.0935 288.11 42.4991C288.692 43.9047 288.992 45.4112 288.992 46.9327V46.9327Z" fill="url(#paint6_linear_613_6)"/>
<path d="M283.238 46.7015C282.981 51.8391 278.46 62.3971 278.46 62.3971H271.447L267.08 52.2502C265.801 49.7586 265.466 46.8888 266.136 44.1697C266.807 41.4506 268.437 39.0654 270.727 37.4536C272.174 37.0008 273.707 36.8959 275.202 37.1473C276.697 37.3988 278.112 37.9995 279.331 38.9006C280.55 39.8018 281.539 40.9779 282.218 42.3334C282.897 43.6889 283.246 45.1855 283.238 46.7015V46.7015Z" fill="url(#paint7_linear_613_6)"/>
<path d="M271.447 62.3714H282.056V65.8393C282.056 67.2019 281.515 68.5087 280.551 69.4722C279.588 70.4357 278.281 70.977 276.918 70.977H276.405C275.042 70.977 273.735 70.4357 272.772 69.4722C271.808 68.5087 271.267 67.2019 271.267 65.8393V62.3714H271.447Z" fill="#ECA72F"/>
<path d="M274.529 62.7824C274.431 62.7898 274.334 62.7593 274.257 62.6972C274.181 62.6351 274.131 62.5461 274.118 62.4485C272.397 53.4318 272.14 52.0447 272.089 51.8392C272.074 51.7339 272.1 51.6268 272.163 51.5406C272.225 51.4544 272.318 51.3957 272.423 51.3768H273.527C274.144 51.3768 274.35 51.3768 274.452 50.9144C274.48 50.6867 274.59 50.4768 274.761 50.3235C274.913 50.2152 275.101 50.1683 275.287 50.192C275.472 50.2158 275.642 50.3086 275.762 50.452C275.927 50.6406 276.034 50.8724 276.071 51.1199L276.379 52.3272C276.379 52.3272 276.379 52.3272 276.379 52.1474C276.426 51.8795 276.531 51.6251 276.687 51.4025C276.797 51.2833 276.933 51.1912 277.085 51.1332C277.236 51.0753 277.399 51.0532 277.561 51.0685C277.845 51.0899 278.112 51.2184 278.306 51.4281C278.306 50.9657 278.562 50.5034 278.717 50.0667C278.871 49.63 279.23 49.5272 279.307 49.5786C279.443 49.5824 279.574 49.6331 279.677 49.722C279.78 49.8109 279.849 49.9327 279.873 50.0667C279.972 50.4272 280.033 50.7976 280.052 51.1713C280.031 51.2816 280.031 51.3949 280.052 51.5052H280.361H280.695H281.414C281.473 51.5071 281.532 51.5218 281.585 51.5484C281.638 51.575 281.685 51.6129 281.722 51.6593C281.745 51.7119 281.758 51.7688 281.758 51.8263C281.758 51.8838 281.745 51.9407 281.722 51.9933L279.641 62.6283C279.64 62.6879 279.625 62.7464 279.598 62.7998C279.572 62.8532 279.534 62.9001 279.488 62.9374C279.441 62.9747 279.387 63.0014 279.329 63.0157C279.271 63.0301 279.211 63.0316 279.152 63.0203C279.094 63.0089 279.038 62.985 278.99 62.9501C278.942 62.9153 278.902 62.8703 278.872 62.8183C278.843 62.7664 278.825 62.7087 278.821 62.6493C278.816 62.5898 278.824 62.5301 278.845 62.4742L280.823 52.3272H280.412C280.104 52.3272 279.564 52.4814 279.282 52.0447C279.165 51.8319 279.103 51.5936 279.102 51.3511V51.3511C279.054 51.5599 278.994 51.7657 278.922 51.9676C278.768 52.5584 278.383 52.6869 278.1 52.6355C277.99 52.6075 277.887 52.5564 277.799 52.4855C277.71 52.4146 277.638 52.3256 277.586 52.2245C277.586 52.2245 277.586 52.0703 277.381 52.0703C277.353 52.0546 277.322 52.0463 277.291 52.0463C277.259 52.0463 277.228 52.0546 277.201 52.0703C277.125 52.1876 277.073 52.3185 277.047 52.4557C277.001 52.6879 276.923 52.9127 276.816 53.1236C276.716 53.2757 276.568 53.3893 276.395 53.4453C276.222 53.5014 276.035 53.4966 275.865 53.4318C275.652 53.2883 275.505 53.0669 275.454 52.8153L275.12 51.4281C275.131 51.3774 275.131 51.3248 275.12 51.274C275.008 51.6221 274.777 51.9192 274.466 52.1121C274.155 52.3051 273.786 52.3813 273.425 52.3272H272.885C273.271 54.4337 274.812 62.4742 274.812 62.4742C274.823 62.5248 274.824 62.5772 274.814 62.6283C274.805 62.6793 274.785 62.7278 274.756 62.771C274.727 62.8142 274.69 62.8511 274.647 62.8795C274.603 62.908 274.555 62.9274 274.504 62.9365L274.529 62.7824Z" fill="#ECA72F"/>
<path d="M221.649 207.92C223.698 203.854 225.201 199.535 226.119 195.075C226.577 192.834 226.586 190.525 226.145 188.28C225.704 186.036 224.822 183.901 223.55 182L212.838 198.235C210.628 201.258 208.896 204.602 207.7 208.151C206.853 211.769 206.774 215.525 207.468 219.175C208.163 222.826 209.616 226.29 211.733 229.344C214.122 227.289 215.253 222.588 216.563 219.685L221.649 207.92Z" fill="url(#paint8_linear_613_6)"/>
</g>
<defs>
<linearGradient id="paint0_linear_613_6" x1="118.01" y1="164.046" x2="103.547" y2="359.457" gradientUnits="userSpaceOnUse">
<stop offset="0.01"/>
<stop offset="0.08" stop-opacity="0.69"/>
<stop offset="0.21" stop-opacity="0.32"/>
<stop offset="1" stop-opacity="0"/>
</linearGradient>
<linearGradient id="paint1_linear_613_6" x1="294.926" y1="160.912" x2="280.438" y2="356.349" gradientUnits="userSpaceOnUse">
<stop offset="0.01"/>
<stop offset="0.08" stop-opacity="0.69"/>
<stop offset="0.21" stop-opacity="0.32"/>
<stop offset="1" stop-opacity="0"/>
</linearGradient>
<linearGradient id="paint2_linear_613_6" x1="85.2232" y1="149.198" x2="221.77" y2="281.126" gradientUnits="userSpaceOnUse">
<stop offset="0.01"/>
<stop offset="0.08" stop-opacity="0.69"/>
<stop offset="0.21" stop-opacity="0.32"/>
<stop offset="1" stop-opacity="0"/>
</linearGradient>
<linearGradient id="paint3_linear_613_6" x1="173.446" y1="78.6714" x2="302.99" y2="306.43" gradientUnits="userSpaceOnUse">
<stop offset="0.01"/>
<stop offset="0.08" stop-opacity="0.69"/>
<stop offset="0.21" stop-opacity="0.32"/>
<stop offset="1" stop-opacity="0"/>
</linearGradient>
<linearGradient id="paint4_linear_613_6" x1="196.641" y1="65.4753" x2="326.185" y2="293.234" gradientUnits="userSpaceOnUse">
<stop offset="0.01"/>
<stop offset="0.08" stop-opacity="0.69"/>
<stop offset="0.21" stop-opacity="0.32"/>
<stop offset="1" stop-opacity="0"/>
</linearGradient>
<linearGradient id="paint5_linear_613_6" x1="202.702" y1="206.569" x2="230.239" y2="275.145" gradientUnits="userSpaceOnUse">
<stop offset="0.01"/>
<stop offset="0.08" stop-opacity="0.69"/>
<stop offset="0.21" stop-opacity="0.32"/>
<stop offset="1" stop-opacity="0"/>
</linearGradient>
<linearGradient id="paint6_linear_613_6" x1="276.584" y1="71.9788" x2="277.869" y2="31.4683" gradientUnits="userSpaceOnUse">
<stop offset="0.01" stop-color="white"/>
<stop offset="1" stop-color="white" stop-opacity="0"/>
</linearGradient>
<linearGradient id="paint7_linear_613_6" x1="286.089" y1="60.0337" x2="266.72" y2="42.9253" gradientUnits="userSpaceOnUse">
<stop offset="0.01" stop-color="white"/>
<stop offset="1" stop-color="white" stop-opacity="0"/>
</linearGradient>
<linearGradient id="paint8_linear_613_6" x1="154.913" y1="191.865" x2="254.198" y2="174.328" gradientUnits="userSpaceOnUse">
<stop offset="0.01" stop-color="#C25B5B"/>
<stop offset="0.13" stop-opacity="0.69"/>
<stop offset="0.25" stop-opacity="0.32"/>
<stop offset="1" stop-opacity="0"/>
</linearGradient>
<clipPath id="clip0_613_6">
<rect width="406" height="306" fill="white"/>
</clipPath>
</defs>
</svg>
