<svg width="465" height="457" viewBox="0 0 465 457" fill="none" xmlns="http://www.w3.org/2000/svg">
<path d="M65.23 0C29.65 0 0 29.1 0 64.02C0 99.9111 28.6605 128.04 65.23 128.04C100.81 128.04 130.46 98.94 130.46 64.02C130.46 29.1 100.81 0 65.23 0V0ZM62.265 56.2611C63.2545 58.2 65.23 59.1711 68.195 61.11C74.125 63.0521 78.0795 65.9621 81.0445 69.84C84.0095 72.75 85.985 76.6311 85.985 82.4511C85.985 88.2711 84.9955 92.1522 82.0305 95.0622C78.0794 98.9401 74.125 100.882 69.1845 101.85V111.551H62.265V101.85C57.3245 100.879 52.3805 98.9401 49.4155 95.059C46.4538 91.1811 44.475 86.3323 44.475 78.5701H58.3105C58.3105 82.4512 59.3 86.329 60.2861 87.3001C61.2755 89.239 63.2511 90.2101 66.2161 90.2101C68.1916 90.2101 70.1705 89.239 71.1566 88.2712C71.1599 87.3001 72.1494 85.3612 72.1494 82.4512C72.1494 79.5412 71.1599 77.6023 70.1738 75.6601C69.1844 74.6922 67.2088 72.7501 65.23 71.7822C58.3138 68.8722 54.3595 65.9622 51.3945 63.0522C48.4295 60.1422 46.4539 55.2901 46.4539 49.47C46.4539 44.6211 48.4295 39.7689 51.3945 36.8589C54.3595 32.981 58.3139 31.0421 63.2545 31.0421V21.341H70.1739V32.0099C75.1145 32.0099 79.0689 33.9521 81.0445 37.8299C84.0095 41.711 85.985 46.5599 85.985 52.3799H72.1495C72.1495 48.4988 71.16 45.5888 70.1739 43.6499C69.1845 42.6821 68.1951 41.711 66.2195 41.711C64.2438 41.711 62.265 41.711 61.2789 43.6499C60.2895 45.5921 60.2895 47.531 60.2895 49.4699C60.2895 52.3799 61.2789 54.3221 62.265 56.261V56.2611Z" fill="#ECA72F"/>
<path d="M258.946 93.1183C215.461 93.1183 179.881 128.038 179.881 170.717C179.881 213.396 215.461 248.316 258.946 248.316C302.432 248.316 338.012 213.396 338.012 170.717C338.012 128.038 302.432 93.1183 258.946 93.1183V93.1183ZM254.992 161.019C255.981 162.958 258.946 164.901 261.911 166.839C269.817 170.721 274.761 173.631 278.712 177.508C282.666 181.389 283.652 186.238 283.652 193.029C283.652 199.821 281.677 204.669 278.712 208.551C274.757 212.432 270.806 215.342 263.887 215.342V226.982H254.992V215.342C249.062 214.371 243.132 212.432 239.177 207.583C235.223 202.734 233.247 196.914 233.247 188.184H250.048C250.048 193.033 251.037 196.914 253.013 198.853C254.988 200.792 256.967 201.763 259.932 201.763C261.908 201.763 263.887 200.792 265.862 198.853C266.852 196.914 267.838 194.972 267.838 191.094C267.838 188.184 266.848 185.274 265.862 183.335C264.873 181.396 261.908 179.454 258.943 177.515C251.037 174.605 246.093 170.724 242.142 166.846C238.188 162.965 237.202 158.116 237.202 151.325C237.202 144.534 239.177 139.685 242.142 135.804C246.097 131.923 251.037 129.013 256.967 128.045V115.434H264.873L264.876 130.948C270.806 131.919 274.761 134.829 278.712 139.678C281.677 144.527 283.652 150.347 283.652 158.109H266.852C266.852 153.261 265.862 150.351 264.876 147.441C263.887 145.502 261.911 143.559 259.936 143.559C257.96 143.559 255.981 144.531 254.995 146.469C254.006 148.408 253.019 151.318 253.019 154.228C253.016 156.17 254.006 159.08 254.992 161.019V161.019Z" fill="#ECA72F"/>
<path d="M463.531 209.518C462.542 198.849 452.661 190.119 441.787 191.087C430.916 192.058 422.021 201.756 423.007 213.396C426.962 257.046 412.137 297.786 383.473 320.093C378.532 323.974 372.602 327.852 365.683 331.733C361.728 332.704 357.777 333.672 353.823 333.672C350.858 333.672 347.893 332.701 345.917 329.791C343.942 327.852 343.942 325.91 343.942 323L352.837 314.27C365.686 301.659 377.546 290.019 389.406 277.411C397.312 269.652 396.326 256.07 388.417 248.311C380.511 240.552 366.672 241.52 359.756 249.282C348.886 260.922 337.026 272.562 325.166 285.173L320.225 290.022C318.25 291.961 315.285 292.932 313.306 294.871C301.446 302.63 289.586 311.36 280.691 323C267.841 340.46 263.89 362.769 259.936 384.11C254.995 408.361 249.065 431.641 243.135 455.889C246.1 456.86 249.065 456.86 253.02 455.889H339.005V454.918C345.924 433.577 358.77 415.149 371.62 396.718C375.574 391.869 379.525 387.017 383.48 382.168C387.434 378.287 408.189 357.917 424.99 338.518C452.661 305.547 468.472 258.987 463.531 209.513V209.518Z" fill="#ECA72F"/>
<path d="M0.991169 209.518C1.98063 198.849 11.8617 190.119 22.7356 191.087C33.6062 192.058 42.5012 201.756 41.5151 213.396C37.5606 257.046 52.3856 297.786 81.0496 320.093C85.9901 323.974 91.9201 327.852 98.8396 331.733C102.794 332.704 106.745 333.672 110.7 333.672C113.665 333.672 116.63 332.701 118.605 329.791C120.581 327.852 120.581 325.91 120.581 323L111.686 314.27C98.8362 301.659 86.9762 290.019 75.1162 277.411C67.2106 269.652 68.1967 256.07 76.1056 248.311C84.0112 240.552 97.8501 241.52 104.766 249.282C115.637 260.922 127.497 272.562 139.357 285.173L144.297 290.022C146.273 291.961 149.238 292.932 151.217 294.871C163.077 302.63 174.937 311.36 183.832 323C196.681 340.46 200.632 362.769 204.587 384.11C209.527 408.361 215.457 431.641 221.387 455.889C218.422 456.86 215.457 456.86 211.503 455.889H125.518V454.918C118.598 433.577 105.752 415.149 92.9028 396.718C88.9483 391.869 84.9972 387.017 81.0428 382.168C77.0883 378.287 56.3333 357.917 39.5328 338.518C11.8617 305.547 -3.94937 258.987 0.991169 209.513V209.518Z" fill="#ECA72F"/>
</svg>
