<svg width="637" height="448" viewBox="0 0 637 448" fill="none" xmlns="http://www.w3.org/2000/svg">
<path d="M515.942 339.213H457.254C448.76 339.213 441.874 332.327 441.874 323.833C441.874 315.338 448.76 308.447 457.254 308.447H515.942C547.958 309.505 578.098 293.401 595.016 266.202C611.933 239.009 613.057 204.853 597.964 176.603C582.87 148.353 553.854 130.301 521.844 129.249L511.838 128.577L508.406 119.171H508.401C497.401 89.1346 476.052 64.0093 448.188 48.3066C420.324 32.6039 387.772 27.3533 356.381 33.4999C324.99 39.6458 296.824 56.7866 276.938 81.8386L269.996 90.6511L259.47 86.6927H259.464C247.438 82.073 234.511 80.2865 221.683 81.4635C194.12 83.9791 169.438 99.5515 155.308 123.354L149.709 132.76L139.105 130.667C133.079 129.448 126.954 128.823 120.808 128.802C88.72 128.802 59.0627 145.922 43.0213 173.714C26.9747 201.506 26.9747 235.745 43.0213 263.537C59.0627 291.329 88.7187 308.449 120.808 308.449H177.928C186.423 308.449 193.313 315.34 193.313 323.834C193.313 332.329 186.423 339.214 177.928 339.214H120.584C77.5053 339.214 37.6933 316.23 16.152 278.922C-5.384 241.61 -5.384 195.641 16.152 158.334C37.6933 121.022 77.5067 98.0422 120.584 98.0422C125.251 98.0526 129.912 98.3235 134.548 98.8599C148.392 79.5892 167.808 65.0212 190.184 57.1146C212.553 49.2135 236.815 48.3542 259.689 54.6562C290.908 19.8122 335.507 -0.0678261 382.293 0.000173877C414.46 0.109549 445.903 9.56791 472.788 27.2242C499.673 44.8855 520.84 69.9788 533.715 99.4588C574.299 105.396 609.079 131.563 626.021 168.918C642.964 206.272 639.751 249.678 617.485 284.12C595.22 318.568 556.958 339.323 515.944 339.214L515.942 339.213Z" fill="#ECA72F"/>
<path d="M402.076 266.933H237.809C232.184 266.933 226.788 264.698 222.814 260.719C218.835 256.745 216.601 251.349 216.601 245.725V204.209C216.622 198.594 218.861 193.209 222.835 189.239C226.809 185.265 232.189 183.026 237.809 183.005H402.075C407.7 183.005 413.091 185.239 417.07 189.213C421.044 193.192 423.278 198.588 423.278 204.208V245.724C423.278 251.349 421.044 256.744 417.07 260.718C413.091 264.698 407.7 266.932 402.075 266.932L402.076 266.933ZM237.809 197.943V197.938C234.361 197.98 231.575 200.766 231.538 204.209V245.725C231.575 249.173 234.361 251.959 237.809 251.996H402.076C405.524 251.959 408.305 249.173 408.347 245.725V204.209C408.305 200.766 405.524 197.98 402.076 197.938L237.809 197.943Z" fill="#ECA72F"/>
<path d="M381.916 224.973C381.916 230.785 377.202 235.499 371.39 235.499C365.577 235.499 360.864 230.785 360.864 224.973C360.864 219.155 365.577 214.442 371.39 214.442C377.202 214.442 381.916 219.155 381.916 224.973Z" fill="#ECA72F"/>
<path d="M402.076 357.199H237.809C232.189 357.179 226.809 354.939 222.836 350.965C218.862 346.991 216.622 341.611 216.601 335.992V294.481C216.601 288.856 218.836 283.46 222.815 279.486C226.789 275.507 232.185 273.273 237.81 273.273H402.076C407.701 273.273 413.092 275.507 417.071 279.486C421.045 283.46 423.279 288.856 423.279 294.481V335.997V335.992C423.279 341.617 421.045 347.013 417.071 350.987C413.092 354.966 407.701 357.2 402.076 357.2L402.076 357.199ZM237.809 288.21V288.205C234.361 288.247 231.575 291.033 231.538 294.481V335.997V335.992C231.575 339.44 234.361 342.226 237.809 342.268H402.076C405.524 342.226 408.305 339.44 408.347 335.992V294.481C408.305 291.033 405.524 288.247 402.076 288.205L237.809 288.21Z" fill="#ECA72F"/>
<path d="M381.916 315.239C381.916 321.052 377.202 325.765 371.39 325.765C365.577 325.765 360.864 321.052 360.864 315.239C360.864 309.427 365.577 304.713 371.39 304.713C377.202 304.713 381.916 309.427 381.916 315.239Z" fill="#ECA72F"/>
<path d="M402.076 447.399H237.809C232.122 447.478 226.637 445.269 222.596 441.269C218.549 437.264 216.283 431.806 216.304 426.118V384.754C216.304 379.124 218.538 373.723 222.512 369.733C226.486 365.744 231.877 363.494 237.507 363.473H401.774C407.404 363.494 412.794 365.744 416.768 369.733C420.748 373.723 422.977 379.124 422.977 384.754V426.118C422.997 431.702 420.815 437.072 416.898 441.056C412.982 445.04 407.654 447.321 402.07 447.4L402.076 447.399ZM237.809 378.41V378.405C234.33 378.447 231.538 381.275 231.538 384.754V426.118C231.538 429.581 234.346 432.389 237.809 432.389H402.076C403.737 432.389 405.336 431.727 406.513 430.555C407.685 429.378 408.347 427.779 408.347 426.118V384.754C408.347 381.275 405.55 378.446 402.076 378.405L237.809 378.41Z" fill="#ECA72F"/>
<path d="M381.916 405.439C381.916 411.252 377.202 415.965 371.39 415.965C365.577 415.965 360.864 411.252 360.864 405.439C360.864 399.627 365.577 394.913 371.39 394.913C377.202 394.913 381.916 399.627 381.916 405.439Z" fill="#ECA72F"/>
</svg>
