<svg width="391" height="337" viewBox="0 0 391 337" fill="none" xmlns="http://www.w3.org/2000/svg">
<path d="M113.183 326.239H82.9224V279.67C82.9224 278.832 82.5872 278.028 81.9904 277.436C81.3937 276.843 80.5844 276.51 79.7405 276.51H41.6523C40.7899 276.509 39.9597 276.836 39.3324 277.423C38.705 278.011 38.3282 278.815 38.2794 279.67V326.239H32.9019V336.001H358.099V326.239H352.721V279.67C352.673 278.815 352.296 278.011 351.668 277.423C351.041 276.836 350.211 276.509 349.348 276.51H311.419C310.988 276.489 310.557 276.555 310.153 276.704C309.748 276.853 309.378 277.082 309.066 277.378C308.753 277.673 308.505 278.029 308.335 278.423C308.165 278.817 308.078 279.241 308.078 279.67V326.239H236.866V260.397C236.87 259.802 236.754 259.211 236.525 258.661C236.295 258.11 235.957 257.611 235.53 257.193C235.103 256.775 234.595 256.446 234.038 256.225C233.48 256.005 232.884 255.898 232.284 255.911H158.303C157.113 255.911 155.972 256.38 155.131 257.216C154.289 258.051 153.817 259.184 153.817 260.366V326.207H103.382V103.85H9.54628V326.239H33.061V336.001H4.48695C3.29704 336.001 2.15586 335.532 1.31447 334.697C0.473071 333.861 0.000380353 332.728 0.000380353 331.547V101.101C-0.00908407 100.242 0.158172 99.3895 0.491916 98.5964C0.82566 97.8033 1.31887 97.0861 1.94138 96.4887C2.542 95.8802 3.26035 95.3986 4.05324 95.0729C4.84613 94.7471 5.69719 94.5839 6.55523 94.5931H103.382V7.1099C103.557 5.29233 104.368 3.593 105.673 2.30764C106.416 1.55975 107.303 0.96961 108.283 0.573118C109.262 0.176625 110.312 -0.0179274 111.369 0.00129778H279.472C280.502 -0.00613927 281.522 0.191331 282.473 0.58204C283.424 0.972748 284.286 1.54877 285.009 2.27605L285.359 2.65518C286.642 4.06875 287.356 5.90207 287.364 7.80497V94.5299H384.414C385.272 94.5207 386.123 94.6839 386.916 95.0097C387.709 95.3354 388.427 95.8171 389.028 96.4256C389.65 97.0229 390.143 97.7401 390.477 98.5332C390.811 99.3263 390.978 100.179 390.969 101.038V331.673C390.969 332.854 390.496 333.988 389.655 334.823C388.813 335.658 387.672 336.128 386.482 336.128H358.067V326.365H381.582V103.85H287.332V326.239H277.5V9.73219H113.183V326.239ZM52.2801 123.217H28.0335C27.8426 123.217 27.6517 123.47 27.6517 123.786V139.393C27.6517 139.709 27.8426 139.993 28.0335 139.993H52.2801C52.471 139.993 52.6619 139.741 52.6619 139.393V123.628C52.6619 123.312 52.471 123.059 52.2801 123.059V123.217ZM52.2801 231.489H28.0335C27.8426 231.489 27.6517 231.773 27.6517 232.058V247.665C27.6517 247.949 27.8426 248.265 28.0335 248.265H52.2801C52.471 248.265 52.6619 247.981 52.6619 247.665V231.9C52.6619 231.615 52.471 231.331 52.2801 231.331V231.489ZM93.2002 231.489H68.9536C68.7309 231.489 68.5718 231.773 68.5718 232.058V247.665C68.5718 247.949 68.7309 248.265 68.9536 248.265H93.2002C93.3911 248.265 93.5502 247.981 93.5502 247.665V231.9C93.5502 231.615 93.5502 231.331 93.2002 231.331V231.489ZM52.2801 195.219H28.0335C27.8426 195.219 27.6517 195.504 27.6517 195.82V211.427C27.6517 211.743 27.8426 212.027 28.0335 212.027H52.2801C52.471 212.027 52.6619 211.775 52.6619 211.427V195.883C52.6619 195.535 52.471 195.283 52.2801 195.283V195.219ZM52.2801 159.139H28.0335C27.8426 159.139 27.6517 159.392 27.6517 159.74V175.347C27.6517 175.631 27.8426 175.947 28.0335 175.947H52.2801C52.471 175.947 52.6619 175.663 52.6619 175.347V159.74C52.6619 159.392 52.471 159.139 52.2801 159.139ZM93.2002 123.217H68.9536C68.7309 123.217 68.5718 123.47 68.5718 123.786V139.393C68.5718 139.709 68.7309 139.993 68.9536 139.993H93.2002C93.3911 139.993 93.5502 139.741 93.5502 139.393V123.628C93.5502 123.312 93.5502 123.059 93.2002 123.059V123.217ZM93.2002 195.377H68.9536C68.7309 195.377 68.5718 195.662 68.5718 195.978V211.585C68.5718 211.901 68.7309 212.185 68.9536 212.185H93.2002C93.3911 212.185 93.5502 211.932 93.5502 211.585V195.883C93.5502 195.535 93.5502 195.283 93.2002 195.283V195.377ZM93.2002 159.297H68.9536C68.7309 159.297 68.5718 159.55 68.5718 159.897V175.347C68.5718 175.631 68.7309 175.947 68.9536 175.947H93.2002C93.3911 175.947 93.5502 175.663 93.5502 175.347V159.74C93.5502 159.392 93.5502 159.139 93.2002 159.139V159.297ZM338.721 123.217H362.967C363.158 123.217 363.349 123.47 363.349 123.786V139.393C363.349 139.709 363.158 139.993 362.967 139.993H338.721C338.53 139.993 338.339 139.741 338.339 139.393V123.628C338.339 123.312 338.53 123.059 338.721 123.059V123.217ZM338.721 231.489H362.967C363.158 231.489 363.349 231.773 363.349 232.058V247.665C363.349 247.949 363.158 248.265 362.967 248.265H338.721C338.53 248.265 338.339 247.981 338.339 247.665V231.9C338.339 231.615 338.53 231.331 338.721 231.331V231.489ZM297.801 231.489H322.047C322.27 231.489 322.429 231.773 322.429 232.058V247.665C322.429 247.949 322.429 248.265 322.047 248.265H297.801C297.61 248.265 297.451 247.981 297.451 247.665V231.9C297.451 231.615 297.451 231.331 297.801 231.331V231.489ZM338.721 195.377H362.967C363.158 195.377 363.349 195.662 363.349 195.978V211.585C363.349 211.901 363.158 212.185 362.967 212.185H338.721C338.53 212.185 338.339 211.932 338.339 211.585V195.883C338.339 195.535 338.53 195.283 338.721 195.283V195.377ZM338.721 159.297H362.967C363.158 159.297 363.349 159.55 363.349 159.897V175.347C363.349 175.631 363.158 175.947 362.967 175.947H338.721C338.53 175.947 338.339 175.663 338.339 175.347V159.74C338.339 159.392 338.53 159.139 338.721 159.139V159.297ZM297.801 123.217H322.047C322.27 123.217 322.429 123.47 322.429 123.786V139.393C322.429 139.709 322.429 139.993 322.047 139.993H297.801C297.61 139.993 297.451 139.741 297.451 139.393V123.628C297.451 123.312 297.451 123.059 297.801 123.059V123.217ZM297.801 195.377H322.047C322.27 195.377 322.429 195.662 322.429 195.978V211.585C322.429 211.901 322.429 212.185 322.047 212.185H297.801C297.61 212.185 297.451 211.932 297.451 211.585V195.883C297.451 195.535 297.451 195.283 297.801 195.283V195.377ZM297.801 159.297H322.047C322.27 159.297 322.429 159.55 322.429 159.897V175.347C322.429 175.631 322.429 175.947 322.047 175.947H297.801C297.61 175.947 297.451 175.663 297.451 175.347V159.74C297.451 159.392 297.451 159.139 297.801 159.139V159.297ZM136.825 34.249H163.203C163.401 34.2488 163.59 34.3243 163.732 34.4598C163.875 34.5952 163.959 34.7801 163.967 34.9756V61.1985C163.959 61.3941 163.875 61.5789 163.732 61.7143C163.59 61.8498 163.401 61.9253 163.203 61.9251H136.825C136.631 61.9251 136.445 61.8486 136.307 61.7123C136.17 61.576 136.093 61.3912 136.093 61.1985V34.9756C136.093 34.7829 136.17 34.5981 136.307 34.4618C136.445 34.3255 136.631 34.249 136.825 34.249ZM227.543 34.249H253.921C254.118 34.2488 254.308 34.3243 254.45 34.4598C254.593 34.5952 254.677 34.7801 254.685 34.9756V61.1985C254.677 61.3941 254.593 61.5789 254.45 61.7143C254.308 61.8498 254.118 61.9253 253.921 61.9251H227.511C227.314 61.9253 227.124 61.8498 226.982 61.7143C226.84 61.5789 226.756 61.3941 226.747 61.1985V34.9756C226.756 34.7801 226.84 34.5952 226.982 34.4598C227.124 34.3243 227.314 34.2488 227.511 34.249H227.543ZM182.168 34.249H208.578C208.772 34.249 208.959 34.3255 209.096 34.4618C209.233 34.5981 209.31 34.7829 209.31 34.9756V61.1985C209.31 61.3912 209.233 61.576 209.096 61.7123C208.959 61.8486 208.772 61.9251 208.578 61.9251H182.168C181.976 61.9174 181.795 61.8383 181.659 61.7037C181.524 61.5691 181.444 61.3887 181.436 61.1985V34.9756C181.444 34.7854 181.524 34.6051 181.659 34.4704C181.795 34.3358 181.976 34.2567 182.168 34.249ZM136.825 90.9914H163.203C163.406 90.9914 163.6 91.0713 163.743 91.2135C163.887 91.3557 163.967 91.5486 163.967 91.7497V117.941C163.967 118.041 163.947 118.139 163.909 118.231C163.871 118.323 163.814 118.407 163.743 118.477C163.673 118.548 163.588 118.603 163.496 118.641C163.403 118.68 163.304 118.699 163.203 118.699H136.825C136.726 118.699 136.628 118.679 136.537 118.641C136.446 118.603 136.364 118.546 136.296 118.475C136.227 118.404 136.174 118.321 136.139 118.229C136.105 118.137 136.089 118.039 136.093 117.941V91.6233C136.116 91.4474 136.204 91.2861 136.338 91.1697C136.473 91.0533 136.646 90.9899 136.825 90.9914ZM227.543 90.9914H253.921C254.081 91.0163 254.229 91.0908 254.343 91.2044C254.458 91.3179 254.533 91.4646 254.558 91.6233V117.815C254.558 118.016 254.477 118.209 254.334 118.351C254.191 118.493 253.997 118.573 253.794 118.573H227.511C227.308 118.573 227.114 118.493 226.971 118.351C226.828 118.209 226.747 118.016 226.747 117.815V91.6233C226.747 91.4222 226.828 91.2293 226.971 91.0871C227.114 90.9449 227.308 90.8651 227.511 90.8651L227.543 90.9914ZM182.168 90.9914H208.578C208.677 90.9913 208.775 91.0111 208.866 91.0496C208.957 91.0881 209.039 91.1444 209.107 91.2153C209.176 91.2862 209.229 91.37 209.264 91.4619C209.299 91.5537 209.314 91.6516 209.31 91.7497V117.941C209.314 118.039 209.299 118.137 209.264 118.229C209.229 118.321 209.176 118.404 209.107 118.475C209.039 118.546 208.957 118.603 208.866 118.641C208.775 118.679 208.677 118.699 208.578 118.699H182.168C181.971 118.691 181.785 118.608 181.648 118.466C181.512 118.325 181.436 118.137 181.436 117.941V91.6233C181.436 91.4276 181.512 91.2393 181.648 91.098C181.785 90.9567 181.971 90.8732 182.168 90.8651V90.9914ZM136.825 204.508H163.203C163.406 204.508 163.6 204.588 163.743 204.73C163.887 204.872 163.967 205.065 163.967 205.266V231.457C163.967 231.659 163.887 231.851 163.743 231.994C163.6 232.136 163.406 232.216 163.203 232.216H136.825C136.726 232.216 136.628 232.196 136.537 232.158C136.446 232.119 136.364 232.063 136.296 231.992C136.227 231.921 136.174 231.837 136.139 231.745C136.105 231.653 136.089 231.556 136.093 231.457V205.361C136.089 205.263 136.105 205.165 136.139 205.073C136.174 204.981 136.227 204.897 136.296 204.827C136.364 204.756 136.446 204.699 136.537 204.661C136.628 204.622 136.726 204.603 136.825 204.603V204.508ZM227.543 204.508H253.921C254.119 204.539 254.296 204.646 254.415 204.805C254.534 204.965 254.585 205.164 254.558 205.361V231.552C254.558 231.753 254.477 231.946 254.334 232.088C254.191 232.231 253.997 232.31 253.794 232.31H227.511C227.308 232.31 227.114 232.231 226.971 232.088C226.828 231.946 226.747 231.753 226.747 231.552V205.361C226.747 205.16 226.828 204.967 226.971 204.825C227.114 204.683 227.308 204.603 227.511 204.603L227.543 204.508ZM182.168 204.508H208.578C208.677 204.508 208.775 204.528 208.866 204.566C208.957 204.605 209.039 204.661 209.107 204.732C209.176 204.803 209.229 204.887 209.264 204.978C209.299 205.07 209.314 205.168 209.31 205.266V231.457C209.314 231.556 209.299 231.653 209.264 231.745C209.229 231.837 209.176 231.921 209.107 231.992C209.039 232.063 208.957 232.119 208.866 232.158C208.775 232.196 208.677 232.216 208.578 232.216H182.168C181.971 232.208 181.785 232.124 181.648 231.983C181.512 231.841 181.436 231.653 181.436 231.457V205.361C181.436 205.165 181.512 204.977 181.648 204.836C181.785 204.694 181.971 204.611 182.168 204.603V204.508ZM136.825 147.765H163.203C163.401 147.765 163.59 147.841 163.732 147.976C163.875 148.112 163.959 148.297 163.967 148.492V174.715C163.967 174.813 163.947 174.91 163.909 175.001C163.87 175.091 163.813 175.172 163.742 175.24C163.67 175.308 163.586 175.361 163.493 175.396C163.401 175.43 163.302 175.446 163.203 175.442H136.825C136.631 175.442 136.445 175.365 136.307 175.229C136.17 175.093 136.093 174.908 136.093 174.715V148.492C136.093 148.299 136.17 148.115 136.307 147.978C136.445 147.842 136.631 147.765 136.825 147.765ZM227.543 147.765H253.921C254.096 147.795 254.255 147.883 254.371 148.016C254.487 148.148 254.553 148.317 254.558 148.492V174.715C254.558 174.813 254.538 174.91 254.499 175.001C254.46 175.091 254.404 175.172 254.332 175.24C254.261 175.308 254.176 175.361 254.084 175.396C253.991 175.43 253.893 175.446 253.794 175.442H227.511C227.412 175.446 227.314 175.43 227.221 175.396C227.129 175.361 227.044 175.308 226.973 175.24C226.901 175.172 226.845 175.091 226.806 175.001C226.767 174.91 226.747 174.813 226.747 174.715V148.492C226.756 148.297 226.84 148.112 226.982 147.976C227.124 147.841 227.314 147.765 227.511 147.765H227.543ZM182.168 147.765H208.578C208.772 147.765 208.959 147.842 209.096 147.978C209.233 148.115 209.31 148.299 209.31 148.492V174.715C209.31 174.908 209.233 175.093 209.096 175.229C208.959 175.365 208.772 175.442 208.578 175.442H182.168C182.067 175.45 181.965 175.438 181.868 175.406C181.772 175.373 181.684 175.321 181.609 175.253C181.534 175.184 181.474 175.101 181.434 175.008C181.393 174.916 181.372 174.816 181.372 174.715V148.492C181.38 148.302 181.46 148.122 181.595 147.987C181.731 147.852 181.913 147.773 182.104 147.765H182.168Z" fill="#ECA72F"/>
</svg>
