<svg width="481" height="440" viewBox="0 0 481 440" fill="none" xmlns="http://www.w3.org/2000/svg">
<path d="M179.438 178.889C177.821 178.889 173.019 183.358 173.019 183.358C174.587 183.358 181.006 178.889 179.438 178.889ZM363.629 0C390.873 0 413.266 20.8848 413.266 46.1928C413.266 71.5464 390.824 92.3856 363.629 92.3856C336.434 92.3856 313.992 71.5464 313.992 46.1928C313.992 20.8392 334.817 0 363.629 0ZM64.092 198.269H76.93V192.295H64.092C60.907 192.295 57.673 192.295 56.105 190.79C56.105 189.286 56.105 189.286 56.105 189.286V153.49H49.686V187.781C49.686 189.286 49.686 192.25 51.303 195.214C54.488 196.764 57.673 198.269 64.092 198.269ZM478.975 284.726L477.358 271.32C470.939 217.649 469.371 216.144 472.556 122.254C472.556 119.29 469.371 116.28 466.137 116.28C462.952 116.28 459.718 119.244 459.718 122.254C456.533 217.649 456.533 219.154 464.52 272.825L466.137 286.231C467.754 299.638 466.137 308.575 461.335 311.585C456.533 316.054 445.312 311.585 445.312 311.585C398.86 298.178 339.57 326.496 336.385 326.496C333.2 328.001 331.583 330.965 333.2 333.929C334.817 335.434 336.385 336.893 339.619 336.893C341.236 336.893 341.236 336.893 342.804 336.893C342.804 336.893 370.048 324.946 398.86 320.477V421.846H371.616C366.814 421.846 362.012 426.314 362.012 430.783C362.012 435.252 366.814 439.721 371.616 439.721H448.497C453.299 439.721 458.101 435.252 458.101 430.783C458.101 426.314 453.299 421.846 448.497 421.846H424.487V320.477C430.906 320.477 435.708 321.982 442.127 323.441C442.127 323.441 458.15 329.414 470.939 321.936C478.975 316.008 482.16 302.602 478.975 284.726ZM454.965 256.409C453.348 217.649 440.559 178.889 438.942 140.129C437.325 83.4936 344.421 81.9888 342.804 137.165C307.573 143.138 272.342 146.102 235.494 144.598C201.831 143.093 201.831 190.79 235.494 192.295C273.959 193.8 312.375 190.79 349.223 184.862C352.408 205.747 357.21 226.586 358.827 247.471C280.329 272.779 237.062 333.929 225.89 412.908V414.413V241.498H275.527V201.233H99.323V199.728V198.223C99.323 195.259 100.94 193.754 104.125 192.25C105.742 192.25 105.742 192.25 107.31 192.25V195.214H155.379C156.996 195.214 158.564 195.214 160.181 195.214C161.798 195.214 163.366 195.214 164.983 193.709C164.983 193.709 164.983 192.204 164.983 190.745C164.983 189.286 164.983 189.24 164.983 187.781C164.983 186.276 166.6 186.276 168.168 186.276C166.551 187.781 166.551 189.24 166.551 192.25H219.422C219.422 183.312 206.584 174.374 192.178 174.374C187.376 174.374 182.574 175.879 179.34 175.879C180.957 184.817 171.353 183.312 168.119 183.312C168.119 183.312 168.119 184.817 166.502 184.817C164.885 184.817 163.317 184.817 161.7 186.322C160.083 187.826 160.083 187.826 160.083 189.286V190.79C160.083 190.79 158.466 192.295 156.898 192.295V184.817H107.31V190.79C105.693 190.79 104.125 190.79 104.125 190.79C99.323 192.295 99.323 193.754 97.706 196.764V198.269C97.706 199.774 97.706 199.774 97.706 199.774H0V239.993H27.244V438.262H227.507V418.882C230.692 448.704 286.797 447.199 291.599 411.449C299.586 350.345 338.051 310.08 402.143 296.674C427.721 302.602 456.533 287.69 454.965 256.409ZM72.079 65.5728L80.066 172.915L59.241 174.42L51.254 67.0776L72.079 65.5728Z" fill="#ECA72F"/>
</svg>
