<svg width="512" height="512" viewBox="0 0 512 512" fill="none" xmlns="http://www.w3.org/2000/svg">
<path d="M401.066 253.39C401.085 247.325 398.941 241.452 395.021 236.825C391.1 232.198 385.659 229.119 379.673 228.14L351.428 223.43L356.855 196.269H426.666V247.468H443.733V82.0763L507.28 50.2983C510.173 48.8562 511.999 45.9037 511.999 42.6696C511.999 39.4355 510.173 36.4829 507.28 35.0323L439.014 0.899168C436.36 -0.414957 433.22 -0.286958 430.711 1.27463C428.202 2.83622 426.666 5.57541 426.666 8.53645V145.069H362.325C370.466 135.998 375.467 124.06 375.467 110.936C375.467 82.6992 352.503 59.7361 324.267 59.7361C296.03 59.7361 273.067 82.6992 273.067 110.936C273.067 126.262 279.868 140 290.569 149.387L217.055 214.735L169.328 238.594L144.855 234.515C155.427 225.128 162.134 211.483 162.134 196.269C162.134 168.032 139.171 145.069 110.935 145.069C82.6982 145.069 59.7351 168.032 59.7351 196.269C59.7351 211.842 66.7495 225.794 77.7574 235.189C77.6379 235.428 77.4673 235.616 77.3734 235.863L50.9202 304.641C46.0819 317.245 47.3875 331.043 54.5128 342.503C55.8695 344.688 57.4482 346.659 59.1207 348.528L35.8931 387.243L2.50241 420.634C1.70915 421.426 1.07981 422.366 0.650419 423.401C0.221023 424.437 0 425.546 0 426.667C0 427.788 0.221023 428.898 0.650419 429.933C1.07981 430.968 1.70915 431.909 2.50241 432.7L28.1023 458.3C29.7662 459.964 31.9508 460.8 34.1353 460.8C36.3198 460.8 38.5043 459.964 40.1683 458.3L82.8347 415.634C83.232 415.237 83.5893 414.803 83.9014 414.337L116.678 365.168L128.001 366.192V401.067H119.468C114.749 401.067 110.935 404.882 110.935 409.601V471.074L6.61545 495.147C4.73477 495.581 3.05695 496.641 1.85585 498.152C0.654755 499.663 0.00130607 501.536 0.00215977 503.467V512H17.0687V510.259L121.388 486.187C123.269 485.752 124.947 484.693 126.148 483.182C127.349 481.671 128.002 479.797 128.001 477.867V418.134H256.001C258.415 418.134 260.728 417.11 262.341 415.309L336.597 332.801H511.999V315.735H401.066V253.39V253.39ZM443.733 22.3433L484.385 42.6696L443.733 62.9958V22.3433V22.3433ZM290.134 110.936C290.134 92.1114 305.442 76.8027 324.267 76.8027C343.091 76.8027 358.4 92.1114 358.4 110.936C358.4 129.76 343.091 145.069 324.267 145.069C305.442 145.069 290.134 129.76 290.134 110.936V110.936ZM278.102 183.298L265.123 217.039L241.016 235.215L233.08 223.311L278.102 183.298ZM76.8017 196.269C76.8017 177.444 92.1104 162.136 110.935 162.136C129.759 162.136 145.068 177.444 145.068 196.269C145.068 215.093 129.759 230.402 110.935 230.402C92.1104 230.402 76.8017 215.093 76.8017 196.269ZM70.1713 404.165L34.1353 440.201L20.6015 426.667L48.7016 398.567C49.1939 398.076 49.6238 397.525 49.9816 396.929L72.8934 358.742C77.3087 360.764 82.0349 362.022 86.871 362.463L97.3328 363.41L70.1713 404.165V404.165ZM170.668 401.067H145.068V358.401C145.068 356.272 144.273 354.22 142.838 352.647C141.402 351.075 139.431 350.096 137.311 349.902L88.424 345.456C80.3601 344.722 73.286 340.362 69.0023 333.484C64.7271 326.606 63.942 318.337 66.8519 310.777L91.1973 247.468H118.76L169.268 255.882C171.046 256.174 172.87 255.899 174.482 255.097L218.941 232.868L226.757 244.593L176.931 273.068H136.535C134.631 273.069 132.783 273.706 131.283 274.878C129.783 276.05 128.718 277.689 128.257 279.536L119.724 313.669C119.436 314.811 119.388 316 119.585 317.161C119.782 318.321 120.219 319.428 120.868 320.411C121.512 321.398 122.354 322.24 123.341 322.883C124.329 323.527 125.439 323.958 126.602 324.148L163.542 330.309C165.536 330.636 167.348 331.663 168.654 333.205C169.96 334.746 170.674 336.703 170.668 338.723V401.067V401.067ZM341.333 315.735H332.8C330.385 315.735 328.073 316.759 326.46 318.559L252.203 401.067H187.734V338.723C187.753 332.658 185.609 326.785 181.689 322.158C177.768 317.53 172.327 314.451 166.341 313.473L138.514 308.831L143.199 290.135H179.201C180.686 290.135 182.145 289.742 183.434 289.008L243.167 254.875C243.295 254.798 243.371 254.662 243.499 254.585C243.679 254.466 243.892 254.414 244.071 254.286L261.897 240.846C262.742 246.538 264.687 252.085 267.845 257.171C269.202 259.355 270.78 261.326 272.453 263.195L249.225 301.911L215.834 335.301C215.041 336.093 214.412 337.033 213.982 338.069C213.553 339.104 213.332 340.214 213.332 341.334C213.332 342.455 213.553 343.565 213.982 344.6C214.412 345.635 215.041 346.576 215.834 347.367L241.434 372.967C242.226 373.761 243.166 374.39 244.201 374.819C245.237 375.248 246.347 375.469 247.467 375.468C248.588 375.469 249.698 375.248 250.733 374.819C251.769 374.39 252.709 373.761 253.5 372.967L296.167 330.301C296.564 329.905 296.921 329.47 297.233 329.004L330.01 279.835L341.333 280.859V315.735V315.735ZM286.225 273.409C290.641 275.431 295.367 276.689 300.203 277.13L310.665 278.077L283.495 318.832L247.467 354.868L233.934 341.334L262.034 313.234C262.526 312.743 262.956 312.192 263.314 311.596L286.225 273.409ZM384 315.735H358.4V273.068C358.4 270.939 357.605 268.887 356.17 267.314C354.734 265.742 352.763 264.763 350.643 264.569L301.756 260.123C293.692 259.389 286.618 255.029 282.334 248.151C278.059 241.273 277.274 233.004 280.184 225.444L304.529 162.136H426.666V179.202H349.867C347.894 179.202 345.983 179.886 344.458 181.137C342.933 182.388 341.889 184.129 341.504 186.063L332.971 228.729C332.748 229.852 332.752 231.007 332.982 232.128C333.212 233.249 333.663 234.313 334.31 235.257C334.962 236.198 335.795 236.998 336.761 237.61C337.727 238.223 338.806 238.636 339.934 238.824L376.874 244.985C378.868 245.309 380.681 246.333 381.987 247.874C383.293 249.415 384.007 251.371 384 253.39V315.735Z" fill="#ECA72F"/>
</svg>
