<svg width="608" height="607" viewBox="0 0 608 607" fill="none" xmlns="http://www.w3.org/2000/svg">
<path d="M187 326.667H420.333C433.214 326.667 443.667 316.214 443.667 303.333V210C443.667 174.869 417.64 145.797 383.864 140.828C392.145 126.885 396.999 110.683 396.999 93.3333C396.999 41.8693 355.13 0 303.666 0C252.202 0 210.333 41.8693 210.333 93.3333C210.333 110.683 215.187 126.885 223.458 140.828C189.692 145.786 163.666 174.869 163.666 210V303.333C163.666 316.214 174.119 326.667 186.999 326.667H187ZM303.667 46.6667C329.401 46.6667 350.333 67.5987 350.333 93.3333C350.333 119.068 329.401 140 303.667 140C277.932 140 257 119.068 257 93.3333C257 67.5987 277.943 46.6667 303.667 46.6667ZM210.333 210C210.333 197.13 220.797 186.667 233.667 186.667H373.667C386.536 186.667 397 197.13 397 210V280H210.333V210Z" fill="#ECA72F"/>
<path d="M182 469.187C185.198 461.171 187.005 452.468 187.005 443.332C187.005 404.728 155.609 373.332 117.005 373.332C78.4012 373.332 47.0052 404.728 47.0052 443.332C47.0052 452.468 48.8125 461.171 52.0104 469.187C22.297 477.26 0.338379 504.405 0.338379 536.665V583.332C0.338379 596.212 10.7914 606.665 23.6717 606.665H210.338C223.219 606.665 233.672 596.212 233.672 583.332V536.665C233.672 504.405 211.729 477.259 182 469.187H182ZM117.005 419.999C129.875 419.999 140.339 430.462 140.339 443.332C140.339 456.202 129.875 466.665 117.005 466.665C104.136 466.665 93.672 456.202 93.672 443.332C93.672 430.462 104.136 419.999 117.005 419.999ZM187.005 559.999H47.0053V536.665C47.0053 523.796 57.4689 513.332 70.3386 513.332H163.672C176.542 513.332 187.005 523.796 187.005 536.665V559.999Z" fill="#ECA72F"/>
<path d="M555.333 469.187C558.531 461.171 560.339 452.468 560.339 443.332C560.339 404.728 528.943 373.332 490.339 373.332C451.735 373.332 420.339 404.728 420.339 443.332C420.339 452.468 422.146 461.171 425.344 469.187C395.614 477.26 373.672 504.405 373.672 536.665V583.332C373.672 596.212 384.125 606.665 397.005 606.665H583.672C596.552 606.665 607.005 596.212 607.005 583.332V536.665C607.005 504.405 585.062 477.259 555.333 469.187H555.333ZM490.339 419.999C503.208 419.999 513.672 430.462 513.672 443.332C513.672 456.202 503.208 466.665 490.339 466.665C477.469 466.665 467.005 456.202 467.005 443.332C467.005 430.462 477.469 419.999 490.339 419.999ZM560.339 559.999H420.339V536.665C420.339 523.796 430.802 513.332 443.672 513.332H537.005C549.875 513.332 560.339 523.796 560.339 536.665V559.999Z" fill="#ECA72F"/>
<path d="M308.494 385.02C307.906 385.125 307.337 385.362 306.805 385.725L218.303 439.484L218.299 439.489C216.98 440.268 215.936 441.752 215.396 443.61C214.857 445.468 214.869 447.547 215.427 449.394C215.988 451.237 217.052 452.694 218.382 453.447C219.713 454.2 221.202 454.184 222.522 453.4L309 401.051L395.478 453.4C396.798 454.184 398.287 454.2 399.618 453.447C400.948 452.694 402.012 451.237 402.573 449.394C403.131 447.547 403.143 445.468 402.604 443.61C402.064 441.752 401.02 440.268 399.701 439.489L311.199 385.73L311.195 385.725C310.354 385.172 309.423 384.925 308.495 385.02H308.494Z" fill="#ECA72F"/>
<path d="M308.5 339C305.931 339 303.467 339.487 301.68 340.352C299.892 341.214 298.925 342.383 299.005 343.587V392.494V392.491C298.971 393.682 299.958 394.829 301.739 395.676C303.521 396.522 305.957 397 308.5 397C311.043 397 313.479 396.522 315.261 395.676C317.042 394.829 318.029 393.682 317.995 392.491V343.584V343.587C318.075 342.383 317.108 341.214 315.32 340.352C313.532 339.487 311.069 339 308.5 339H308.5Z" fill="#ECA72F"/>
<path d="M218.359 425.048C216.215 425.252 214.487 426.203 213.97 427.459L203.171 451.478C202.814 452.306 203.021 453.183 203.748 453.917C204.475 454.652 205.665 455.184 207.051 455.397L247.212 461.829L247.216 461.831C248.602 462.044 250.074 461.92 251.31 461.485C252.545 461.052 253.438 460.346 253.796 459.518C254.154 458.692 253.947 457.815 253.22 457.079C252.489 456.344 251.302 455.812 249.912 455.599L214.983 449.97L224.434 429.166V429.168C224.988 428.098 224.57 426.934 223.33 426.095C222.091 425.253 220.208 424.856 218.358 425.047L218.359 425.048Z" fill="#ECA72F"/>
<path d="M397.43 425.006C395.78 425.057 394.259 425.558 393.306 426.361C392.353 427.164 392.066 428.182 392.534 429.127L401.984 449.929L367.055 455.558C365.665 455.771 364.478 456.302 363.748 457.038C363.021 457.774 362.814 458.651 363.171 459.477C363.529 460.304 364.422 461.011 365.657 461.444C366.893 461.879 368.366 462.003 369.752 461.79L409.912 455.358L409.916 455.356C411.302 455.143 412.493 454.611 413.22 453.875C413.947 453.142 414.154 452.265 413.796 451.437L402.997 427.418C402.353 425.922 400.018 424.91 397.43 425.006L397.43 425.006Z" fill="#ECA72F"/>
</svg>
